<?xml version="1.0" encoding="utf-8"?>
<!-- Generator: Adobe Illustrator 22.1.0, SVG Export Plug-In . SVG Version: 6.00 Build 0)  -->
<svg version="1.1" xmlns="http://www.w3.org/2000/svg" xmlns:xlink="http://www.w3.org/1999/xlink" x="0px" y="0px" width="40px"
	 height="29.4px" viewBox="0 0 40 29.4" style="enable-background:new 0 0 40 29.4;" xml:space="preserve">
<style type="text/css">
	.st0{display:none;}
	.st1{fill:none;stroke:#221B17;stroke-width:2.5703;stroke-linecap:round;stroke-linejoin:round;stroke-miterlimit:10;}
	.st2{fill:url(#SVGID_1_);}
	.st3{fill:url(#SVGID_2_);}
	.st4{fill:url(#SVGID_3_);}
	.st5{fill:url(#SVGID_4_);}
	.st6{fill:url(#SVGID_5_);}
	.st7{fill:url(#SVGID_6_);}
	.st8{fill:url(#SVGID_7_);}
	.st9{fill:url(#SVGID_8_);}
	.st10{fill:url(#SVGID_9_);}
	.st11{fill:url(#SVGID_10_);}
	.st12{fill:url(#SVGID_11_);}
	.st13{fill:url(#SVGID_12_);}
	.st14{fill:url(#SVGID_13_);}
	.st15{fill:url(#SVGID_14_);}
	.st16{fill:url(#SVGID_15_);}
	.st17{fill:url(#SVGID_16_);}
	.st18{fill:url(#SVGID_17_);}
	.st19{fill:url(#SVGID_18_);}
	.st20{fill:url(#SVGID_19_);}
	.st21{fill:url(#SVGID_20_);}
</style>
<g id="圖層_1">
	<g id="ba3">
	</g>
	<g id="ba2">
	</g>
	<g id="好路投注">
	</g>
	<g id="有卡限紅" class="st0">
	</g>
	<g id="無卡限紅" class="st0">
	</g>
	<g id="ba3開始按鈕">
	</g>
	<g id="ba3_1_">
	</g>
	<polygon class="st1" points="11.1,14.2 13.2,14.2 9.8,23.4 6.5,14.2 8.7,14.2 8.7,13.2 1.3,13.2 1.3,14.2 3.1,14.2 8.3,28.5 
		9.3,28.5 14.3,14.2 16.2,14.2 16.2,13.2 11.1,13.2 	"/>
	<polygon class="st1" points="16.4,14.2 18.6,14.2 18.6,27.3 16.4,27.3 16.4,28.2 24,28.2 24,27.3 21.8,27.3 21.8,14.2 24,14.2 
		24,13.2 16.4,13.2 	"/>
	<path class="st1" d="M37.1,14.2c-1-0.6-2.6-1-4.4-1h-7.5v1h2.2v13.1h-2.2v1H33v-1h-2.4v-5.6h2.2c1.7,0,3.2-0.4,4.3-1.1
		c1.1-0.7,1.6-1.9,1.6-3.2C38.7,16,38.2,14.9,37.1,14.2z M30.6,14.2H33c0.8,0,1.3,0.2,1.6,0.7s0.5,1.3,0.5,2.4c0,1.1-0.2,2-0.5,2.6
		c-0.3,0.5-0.9,0.7-1.6,0.7h-2.4V14.2z"/>
	<g>
		
			<linearGradient id="SVGID_1_" gradientUnits="userSpaceOnUse" x1="20.3704" y1="17.2906" x2="20.3704" y2="26.8726" gradientTransform="matrix(1 0 0 -1 0 29.0966)">
			<stop  offset="0" style="stop-color:#DABF7A"/>
			<stop  offset="5.907538e-02" style="stop-color:#C49867"/>
			<stop  offset="0.1018" style="stop-color:#B6805C"/>
			<stop  offset="0.15" style="stop-color:#BD8C61"/>
			<stop  offset="0.2359" style="stop-color:#CEAA70"/>
			<stop  offset="0.2862" style="stop-color:#DABF7A"/>
			<stop  offset="0.4138" style="stop-color:#E9D98F"/>
			<stop  offset="0.5531" style="stop-color:#F5EEA0"/>
			<stop  offset="0.6896" style="stop-color:#FDFBAA"/>
			<stop  offset="0.8191" style="stop-color:#FFFFAD"/>
			<stop  offset="0.8595" style="stop-color:#FBF8A8"/>
			<stop  offset="0.918" style="stop-color:#F0E598"/>
			<stop  offset="0.9871" style="stop-color:#DEC67F"/>
			<stop  offset="1" style="stop-color:#DABF7A"/>
		</linearGradient>
		<path class="st2" d="M25.4,8.9c-3.6,0-5.1-6.6-5.1-6.6s-1.5,6.6-5,6.6c-2.9,0-5.6-3.6-5.6-3.6c1.7,5.5,4.1,6.6,4.1,6.6h13.1
			c0,0,2.3-1.5,4.1-6.6C31.1,5.3,28.3,8.9,25.4,8.9z"/>
		
			<radialGradient id="SVGID_2_" cx="31.0411" cy="23.9824" r="1.3743" gradientTransform="matrix(1 0 0 -1 0 29.0966)" gradientUnits="userSpaceOnUse">
			<stop  offset="0.4071" style="stop-color:#FFFFAD"/>
			<stop  offset="0.5336" style="stop-color:#F2E89B"/>
			<stop  offset="0.7272" style="stop-color:#E0CA83"/>
			<stop  offset="0.837" style="stop-color:#DABF7A"/>
			<stop  offset="0.8832" style="stop-color:#D8BC78"/>
			<stop  offset="0.9216" style="stop-color:#D2B174"/>
			<stop  offset="0.9571" style="stop-color:#C8A06B"/>
			<stop  offset="0.9908" style="stop-color:#BB8860"/>
			<stop  offset="1" style="stop-color:#B6805C"/>
		</radialGradient>
		<path class="st3" d="M32.4,5.1c0,0.7-0.6,1.4-1.4,1.4s-1.4-0.6-1.4-1.4s0.6-1.4,1.4-1.4C31.8,3.7,32.4,4.4,32.4,5.1z"/>
		
			<radialGradient id="SVGID_3_" cx="9.8185" cy="23.9824" r="1.3743" gradientTransform="matrix(1 0 0 -1 0 29.0966)" gradientUnits="userSpaceOnUse">
			<stop  offset="0.4071" style="stop-color:#FFFFAD"/>
			<stop  offset="0.5336" style="stop-color:#F2E89B"/>
			<stop  offset="0.7272" style="stop-color:#E0CA83"/>
			<stop  offset="0.837" style="stop-color:#DABF7A"/>
			<stop  offset="0.8832" style="stop-color:#D8BC78"/>
			<stop  offset="0.9216" style="stop-color:#D2B174"/>
			<stop  offset="0.9571" style="stop-color:#C8A06B"/>
			<stop  offset="0.9908" style="stop-color:#BB8860"/>
			<stop  offset="1" style="stop-color:#B6805C"/>
		</radialGradient>
		<path class="st4" d="M11.2,5.1c0,0.7-0.6,1.4-1.4,1.4C9,6.5,8.5,5.8,8.5,5.1s0.6-1.4,1.4-1.4C10.6,3.7,11.2,4.4,11.2,5.1z"/>
		
			<radialGradient id="SVGID_4_" cx="20.3588" cy="27.4606" r="1.636" gradientTransform="matrix(1 0 0 -1 0 29.0966)" gradientUnits="userSpaceOnUse">
			<stop  offset="0.4071" style="stop-color:#FFFFAD"/>
			<stop  offset="0.5336" style="stop-color:#F2E89B"/>
			<stop  offset="0.7272" style="stop-color:#E0CA83"/>
			<stop  offset="0.837" style="stop-color:#DABF7A"/>
			<stop  offset="0.8832" style="stop-color:#D8BC78"/>
			<stop  offset="0.9216" style="stop-color:#D2B174"/>
			<stop  offset="0.9571" style="stop-color:#C8A06B"/>
			<stop  offset="0.9908" style="stop-color:#BB8860"/>
			<stop  offset="1" style="stop-color:#B6805C"/>
		</radialGradient>
		<path class="st5" d="M22,1.6c0,0.9-0.7,1.6-1.6,1.6s-1.6-0.7-1.6-1.6S19.5,0,20.4,0C21.3,0,22,0.7,22,1.6z"/>
		
			<radialGradient id="SVGID_5_" cx="2648.0728" cy="-1404.772" r="3.3261" gradientTransform="matrix(0.3277 6.718475e-05 6.047130e-05 -0.4204 -847.8893 -589.1411)" gradientUnits="userSpaceOnUse">
			<stop  offset="0" style="stop-color:#FFF6B1"/>
			<stop  offset="0.1232" style="stop-color:#FFF6B1;stop-opacity:0.8768"/>
			<stop  offset="1" style="stop-color:#FFF6B1;stop-opacity:0"/>
		</radialGradient>
		<path class="st6" d="M20.9,1.6c0,0.8-0.5,1.4-1.1,1.4s-1.1-0.6-1.1-1.4c0-0.8,0.5-1.4,1.1-1.4C20.5,0.2,20.9,0.9,20.9,1.6z"/>
	</g>
	<g id="tip">
	</g>
</g>
<g id="圖層_2">
	<g>
		<g>
			
				<linearGradient id="SVGID_6_" gradientUnits="userSpaceOnUse" x1="8.7392" y1="17.7279" x2="8.7392" y2="-1.5709" gradientTransform="matrix(1 0 0 -1 0 29.0966)">
				<stop  offset="0" style="stop-color:#C39434"/>
				<stop  offset="0.19" style="stop-color:#7F4B0C"/>
				<stop  offset="0.3242" style="stop-color:#C39434"/>
				<stop  offset="0.3556" style="stop-color:#C99E41"/>
				<stop  offset="0.4135" style="stop-color:#DAB863"/>
				<stop  offset="0.491" style="stop-color:#F4E399"/>
				<stop  offset="0.52" style="stop-color:#FFF4AF"/>
				<stop  offset="0.5539" style="stop-color:#FDF0AA"/>
				<stop  offset="0.5918" style="stop-color:#F6E69D"/>
				<stop  offset="0.6316" style="stop-color:#EBD487"/>
				<stop  offset="0.6728" style="stop-color:#DCBC67"/>
				<stop  offset="0.7146" style="stop-color:#C99D3F"/>
				<stop  offset="0.7253" style="stop-color:#C39434"/>
				<stop  offset="0.83" style="stop-color:#8F4F18"/>
				<stop  offset="0.93" style="stop-color:#FFD452"/>
				<stop  offset="1" style="stop-color:#C39434"/>
			</linearGradient>
			<polygon class="st7" points="8.3,28.5 3.1,14.2 1.3,14.2 1.3,13.2 8.7,13.2 8.7,14.2 6.5,14.2 9.8,23.4 13.2,14.2 11.1,14.2 
				11.1,13.2 16.2,13.2 16.2,14.2 14.3,14.2 9.3,28.5 			"/>
			
				<linearGradient id="SVGID_7_" gradientUnits="userSpaceOnUse" x1="20.2029" y1="17.7279" x2="20.2029" y2="-1.571" gradientTransform="matrix(1 0 0 -1 0 29.0966)">
				<stop  offset="0" style="stop-color:#C39434"/>
				<stop  offset="0.19" style="stop-color:#7F4B0C"/>
				<stop  offset="0.3242" style="stop-color:#C39434"/>
				<stop  offset="0.3556" style="stop-color:#C99E41"/>
				<stop  offset="0.4135" style="stop-color:#DAB863"/>
				<stop  offset="0.491" style="stop-color:#F4E399"/>
				<stop  offset="0.52" style="stop-color:#FFF4AF"/>
				<stop  offset="0.5539" style="stop-color:#FDF0AA"/>
				<stop  offset="0.5918" style="stop-color:#F6E69D"/>
				<stop  offset="0.6316" style="stop-color:#EBD487"/>
				<stop  offset="0.6728" style="stop-color:#DCBC67"/>
				<stop  offset="0.7146" style="stop-color:#C99D3F"/>
				<stop  offset="0.7253" style="stop-color:#C39434"/>
				<stop  offset="0.83" style="stop-color:#8F4F18"/>
				<stop  offset="0.93" style="stop-color:#FFD452"/>
				<stop  offset="1" style="stop-color:#C39434"/>
			</linearGradient>
			<polygon class="st8" points="16.4,28.2 16.4,27.3 18.6,27.3 18.6,14.2 16.4,14.2 16.4,13.2 24,13.2 24,14.2 21.8,14.2 21.8,27.3 
				24,27.3 24,28.2 			"/>
			
				<linearGradient id="SVGID_8_" gradientUnits="userSpaceOnUse" x1="31.9237" y1="17.7279" x2="31.9237" y2="-1.571" gradientTransform="matrix(1 0 0 -1 0 29.0966)">
				<stop  offset="0" style="stop-color:#C39434"/>
				<stop  offset="0.19" style="stop-color:#7F4B0C"/>
				<stop  offset="0.3242" style="stop-color:#C39434"/>
				<stop  offset="0.3556" style="stop-color:#C99E41"/>
				<stop  offset="0.4135" style="stop-color:#DAB863"/>
				<stop  offset="0.491" style="stop-color:#F4E399"/>
				<stop  offset="0.52" style="stop-color:#FFF4AF"/>
				<stop  offset="0.5539" style="stop-color:#FDF0AA"/>
				<stop  offset="0.5918" style="stop-color:#F6E69D"/>
				<stop  offset="0.6316" style="stop-color:#EBD487"/>
				<stop  offset="0.6728" style="stop-color:#DCBC67"/>
				<stop  offset="0.7146" style="stop-color:#C99D3F"/>
				<stop  offset="0.7253" style="stop-color:#C39434"/>
				<stop  offset="0.83" style="stop-color:#8F4F18"/>
				<stop  offset="0.93" style="stop-color:#FFD452"/>
				<stop  offset="1" style="stop-color:#C39434"/>
			</linearGradient>
			<path class="st9" d="M25.1,28.2v-1h2.2v-13h-2.2v-1h7.5c1.9,0,3.4,0.3,4.4,1c1.1,0.7,1.6,1.7,1.6,3.2c0,1.3-0.5,2.5-1.6,3.2
				c-1.1,0.7-2.6,1.1-4.3,1.1h-2.2v5.6H33v1h-7.8V28.2z M32.8,20.6c0.8,0,1.3-0.2,1.6-0.7c0.4-0.5,0.5-1.4,0.5-2.6
				c0-1-0.2-1.9-0.5-2.4c-0.3-0.5-0.8-0.7-1.6-0.7h-2.4v6.5h2.4V20.6z"/>
			
				<linearGradient id="SVGID_9_" gradientUnits="userSpaceOnUse" x1="8.7392" y1="25.3439" x2="8.7392" y2="-0.2085" gradientTransform="matrix(1 0 0 -1 0 29.0966)">
				<stop  offset="0.4071" style="stop-color:#FFFFAD"/>
				<stop  offset="0.5336" style="stop-color:#F2E89B"/>
				<stop  offset="0.7272" style="stop-color:#E0CA83"/>
				<stop  offset="0.837" style="stop-color:#DABF7A"/>
				<stop  offset="0.8832" style="stop-color:#D8BC78"/>
				<stop  offset="0.9216" style="stop-color:#D2B174"/>
				<stop  offset="0.9571" style="stop-color:#C8A06B"/>
				<stop  offset="0.9908" style="stop-color:#BB8860"/>
				<stop  offset="1" style="stop-color:#B6805C"/>
			</linearGradient>
			<path class="st10" d="M14.1,13.9l-5,14.4H8.5L3.3,13.9H1.5v-0.4h6.9V14H6.1l3.7,10.2L13.5,14h-2.3v-0.5H16V14h-1.9V13.9z"/>
			
				<linearGradient id="SVGID_10_" gradientUnits="userSpaceOnUse" x1="20.2543" y1="25.3439" x2="20.2543" y2="-0.2086" gradientTransform="matrix(1 0 0 -1 0 29.0966)">
				<stop  offset="0.4071" style="stop-color:#FFFFAD"/>
				<stop  offset="0.5336" style="stop-color:#F2E89B"/>
				<stop  offset="0.7272" style="stop-color:#E0CA83"/>
				<stop  offset="0.837" style="stop-color:#DABF7A"/>
				<stop  offset="0.8832" style="stop-color:#D8BC78"/>
				<stop  offset="0.9216" style="stop-color:#D2B174"/>
				<stop  offset="0.9571" style="stop-color:#C8A06B"/>
				<stop  offset="0.9908" style="stop-color:#BB8860"/>
				<stop  offset="1" style="stop-color:#B6805C"/>
			</linearGradient>
			<path class="st11" d="M16.7,28v-0.5h2.2V13.9h-2.2v-0.4h7.1V14h-2.2v13.6h2.2v0.5h-7.1V28z"/>
			
				<linearGradient id="SVGID_11_" gradientUnits="userSpaceOnUse" x1="31.9237" y1="25.3439" x2="31.9237" y2="-0.2086" gradientTransform="matrix(1 0 0 -1 0 29.0966)">
				<stop  offset="0.4071" style="stop-color:#FFFFAD"/>
				<stop  offset="0.5336" style="stop-color:#F2E89B"/>
				<stop  offset="0.7272" style="stop-color:#E0CA83"/>
				<stop  offset="0.837" style="stop-color:#DABF7A"/>
				<stop  offset="0.8832" style="stop-color:#D8BC78"/>
				<stop  offset="0.9216" style="stop-color:#D2B174"/>
				<stop  offset="0.9571" style="stop-color:#C8A06B"/>
				<stop  offset="0.9908" style="stop-color:#BB8860"/>
				<stop  offset="1" style="stop-color:#B6805C"/>
			</linearGradient>
			<path class="st12" d="M37,20.4c-1,0.7-2.5,1-4.2,1h-2.5v6.1h2.4V28h-7.3v-0.5h2.2V13.9h-2.2v-0.4h7.3c1.9,0,3.3,0.3,4.3,0.9
				s1.5,1.6,1.5,3C38.5,18.6,38,19.7,37,20.4z M34.8,14.8c-0.4-0.5-1-0.8-1.9-0.8h-2.7v6.9h2.6c0.9,0,1.5-0.3,2-0.9
				c0.4-0.6,0.6-1.4,0.6-2.7C35.4,16.2,35.2,15.3,34.8,14.8z"/>
			<g>
				
					<linearGradient id="SVGID_12_" gradientUnits="userSpaceOnUse" x1="13.52" y1="5.6479" x2="13.52" y2="12.6973" gradientTransform="matrix(1 0 0 -1 0 29.0966)">
					<stop  offset="5.025131e-03" style="stop-color:#FFF6B1"/>
					<stop  offset="1" style="stop-color:#FFF6B1;stop-opacity:0"/>
				</linearGradient>
				<polygon class="st13" points="11.2,20.9 11.6,20.9 14.1,13.8 15.9,13.8 15.9,13.6 11.4,13.6 11.4,13.8 13.7,13.8 				"/>
				
					<linearGradient id="SVGID_13_" gradientUnits="userSpaceOnUse" x1="5.0893" y1="5.6479" x2="5.0893" y2="12.6973" gradientTransform="matrix(1 0 0 -1 0 29.0966)">
					<stop  offset="5.025131e-03" style="stop-color:#FFF6B1"/>
					<stop  offset="1" style="stop-color:#FFF6B1;stop-opacity:0"/>
				</linearGradient>
				<polygon class="st14" points="5.9,20.9 8.6,20.9 6,13.8 8.3,13.8 8.3,13.6 1.6,13.6 1.6,13.8 3.3,13.8 				"/>
			</g>
			
				<linearGradient id="SVGID_14_" gradientUnits="userSpaceOnUse" x1="20.2029" y1="5.6479" x2="20.2029" y2="12.6973" gradientTransform="matrix(1 0 0 -1 0 29.0966)">
				<stop  offset="5.025131e-03" style="stop-color:#FFF6B1"/>
				<stop  offset="1" style="stop-color:#FFF6B1;stop-opacity:0"/>
			</linearGradient>
			<polygon class="st15" points="19,20.9 21.5,20.9 21.5,13.8 23.6,13.8 23.6,13.6 16.8,13.6 16.8,13.8 19,13.8 			"/>
			
				<linearGradient id="SVGID_15_" gradientUnits="userSpaceOnUse" x1="32.0265" y1="5.6479" x2="32.0265" y2="12.6973" gradientTransform="matrix(1 0 0 -1 0 29.0966)">
				<stop  offset="5.025131e-03" style="stop-color:#FFF6B1"/>
				<stop  offset="1" style="stop-color:#FFF6B1;stop-opacity:0"/>
			</linearGradient>
			<path class="st16" d="M27.7,20.9h2.6v-7.1h2.8c0.9,0,1.5,0.3,2,0.9c0.4,0.6,0.6,1.4,0.6,2.6c0,1.2-0.2,2.2-0.6,2.8
				c-0.3,0.4-0.7,0.7-1.2,0.8h1.6c0.5-0.2,1-0.4,1.5-0.7c1-0.6,1.4-1.6,1.4-2.9S37.9,15,37,14.4c-1-0.6-2.5-0.9-4.2-0.9h-7.1v0.2
				h2.2v7.2H27.7z"/>
		</g>
		
			<radialGradient id="SVGID_16_" cx="1069.3253" cy="-420.7417" r="4.2193" gradientTransform="matrix(0.4369 -0.1284 -0.4349 -1.48 -644.0457 -463.5909)" gradientUnits="userSpaceOnUse">
			<stop  offset="0" style="stop-color:#FFF6B1"/>
			<stop  offset="0.1232" style="stop-color:#FFF6B1;stop-opacity:0.8768"/>
			<stop  offset="1" style="stop-color:#FFF6B1;stop-opacity:0"/>
		</radialGradient>
		<path class="st17" d="M8,21.3c1,3.5,1,6.5,0,6.8c-1,0.3-2.7-2.3-3.7-5.7c-1-3.5-1-6.5,0-6.8C5.3,15.2,6.9,17.8,8,21.3z"/>
		
			<radialGradient id="SVGID_17_" cx="1074.9955" cy="-418.7374" r="4.2193" gradientTransform="matrix(0.4369 -0.1284 -0.4349 -1.48 -644.0457 -463.5909)" gradientUnits="userSpaceOnUse">
			<stop  offset="0" style="stop-color:#FFFFFF"/>
			<stop  offset="0.1232" style="stop-color:#FFFFFF;stop-opacity:0.8768"/>
			<stop  offset="1" style="stop-color:#FFFFFF;stop-opacity:0"/>
		</radialGradient>
		<path class="st18" d="M9.6,17.6c1,3.5,1,6.5,0,6.8s-2.7-2.3-3.7-5.7c-1-3.5-1-6.5,0-6.8C6.9,11.5,8.6,14.1,9.6,17.6z"/>
		
			<radialGradient id="SVGID_18_" cx="2409.1536" cy="-337.5509" r="4.2192" gradientTransform="matrix(0.4554 1.000000e-04 2.000000e-04 -1.719 -1078.2805 -560.0424)" gradientUnits="userSpaceOnUse">
			<stop  offset="0" style="stop-color:#FFF6B1"/>
			<stop  offset="0.1232" style="stop-color:#FFF6B1;stop-opacity:0.8768"/>
			<stop  offset="1" style="stop-color:#FFF6B1;stop-opacity:0"/>
		</radialGradient>
		<path class="st19" d="M20.7,20.5c0,4-0.8,7.3-2,7.3c-1,0-2-3.3-2-7.3s0.8-7.3,2-7.3C19.8,13.2,20.7,16.5,20.7,20.5z"/>
		
			<radialGradient id="SVGID_19_" cx="3653.179" cy="-601.5126" r="4.2192" gradientTransform="matrix(0.3539 8.289512e-02 0.2151 -0.9188 -1125.0372 -837.3)" gradientUnits="userSpaceOnUse">
			<stop  offset="0" style="stop-color:#FFFFFF"/>
			<stop  offset="0.1232" style="stop-color:#FFFFFF;stop-opacity:0.8768"/>
			<stop  offset="1" style="stop-color:#FFFFFF;stop-opacity:0"/>
		</radialGradient>
		<path class="st20" d="M39.9,18.5c-0.5,2.2-1.5,3.7-2.4,3.5c-0.8-0.2-1.1-2.1-0.6-4.2s1.5-3.7,2.4-3.5
			C40.1,14.5,40.5,16.4,39.9,18.5z"/>
		
			<radialGradient id="SVGID_20_" cx="2163.1223" cy="-721.8707" r="4.219" gradientTransform="matrix(0.2826 -2.000000e-03 -9.300000e-03 -1.323 -587.6046 -931.7592)" gradientUnits="userSpaceOnUse">
			<stop  offset="0" style="stop-color:#FFF6B1"/>
			<stop  offset="0.1232" style="stop-color:#FFF6B1;stop-opacity:0.8768"/>
			<stop  offset="1" style="stop-color:#FFF6B1;stop-opacity:0"/>
		</radialGradient>
		<path class="st21" d="M31.6,18.9c0,3.1-0.5,5.6-1.1,5.6s-1.2-2.5-1.2-5.6s0.5-5.6,1.1-5.6C31,13.4,31.6,15.8,31.6,18.9z"/>
	</g>
</g>
</svg>
