<?xml version="1.0" encoding="utf-8"?>
<!-- Generator: Adobe Illustrator 23.0.3, SVG Export Plug-In . SVG Version: 6.00 Build 0)  -->
<svg version="1.1" id="圖層_1" xmlns="http://www.w3.org/2000/svg" xmlns:xlink="http://www.w3.org/1999/xlink" x="0px" y="0px"
	 width="20px" height="20px" viewBox="0 0 20 20" style="enable-background:new 0 0 20 20;" xml:space="preserve">
<style type="text/css">
	.st0{fill:url(#SVGID_1_);}
	.st1{fill:#FFFFFF;}
	.st2{fill-rule:evenodd;clip-rule:evenodd;fill:#FFFFFF;}
	.st3{fill-rule:evenodd;clip-rule:evenodd;fill:url(#SVGID_2_);}
	.st4{fill-rule:evenodd;clip-rule:evenodd;fill:url(#SVGID_3_);}
	.st5{fill:none;stroke:#FFFFFF;stroke-width:1.4286;}
	.st6{fill:none;stroke:#FFFFFF;stroke-width:1.2;stroke-miterlimit:10;}
	.st7{fill:#BCBCBC;stroke:#FFFFFF;stroke-width:1.2;stroke-linecap:round;stroke-linejoin:round;stroke-miterlimit:10;}
	.st8{fill:none;stroke:#FFFFFF;stroke-width:1.2;stroke-linecap:round;stroke-linejoin:round;stroke-miterlimit:10;}
	.st9{fill:url(#SVGID_4_);}
	.st10{fill:url(#SVGID_5_);}
	.st11{fill:url(#SVGID_6_);}
	.st12{fill:url(#SVGID_7_);}
	.st13{fill:url(#SVGID_8_);}
	.st14{fill:url(#SVGID_9_);}
	.st15{fill:url(#SVGID_10_);}
	.st16{fill:url(#SVGID_11_);}
	.st17{fill:url(#SVGID_12_);stroke:url(#SVGID_13_);stroke-width:0.9455;stroke-miterlimit:10;}
	.st18{fill:url(#SVGID_14_);}
	.st19{fill:url(#SVGID_15_);}
	.st20{fill:url(#SVGID_16_);}
	.st21{fill:url(#SVGID_17_);}
	.st22{fill:#808080;}
	.st23{fill:#0F1418;}
	.st24{fill:url(#SVGID_18_);}
	.st25{fill-rule:evenodd;clip-rule:evenodd;}
	.st26{fill-rule:evenodd;clip-rule:evenodd;fill:url(#SVGID_19_);}
	.st27{fill-rule:evenodd;clip-rule:evenodd;fill:url(#SVGID_20_);}
	.st28{fill:none;stroke:#000000;stroke-width:1.4286;}
	.st29{fill:url(#SVGID_21_);}
	.st30{fill:url(#SVGID_22_);}
	.st31{fill:url(#SVGID_23_);}
	.st32{fill:url(#SVGID_24_);}
	.st33{fill:url(#SVGID_25_);}
	.st34{fill:url(#SVGID_26_);}
	.st35{fill:url(#SVGID_27_);}
	.st36{fill:url(#SVGID_28_);}
	.st37{fill:url(#SVGID_29_);}
	.st38{fill:url(#SVGID_30_);}
	.st39{fill:url(#SVGID_31_);}
	.st40{fill:url(#SVGID_32_);}
	.st41{fill:url(#SVGID_33_);}
</style>
<g>
	<linearGradient id="SVGID_1_" gradientUnits="userSpaceOnUse" x1="0" y1="10" x2="20" y2="10">
		<stop  offset="0" style="stop-color:#ECECEC"/>
		<stop  offset="0.3379" style="stop-color:#E0E0E0"/>
		<stop  offset="0.9538" style="stop-color:#BFBFBF"/>
		<stop  offset="1" style="stop-color:#BCBCBC"/>
	</linearGradient>
	<path class="st0" d="M11.8,1.3c-0.5-1.8-3-1.8-3.5,0L8.1,1.7C8,2,7.9,2.2,7.7,2.4C7.5,2.6,7.3,2.8,7.1,2.9C6.8,3,6.5,3.1,6.3,3
		C6,3,5.7,3,5.5,2.8L5.1,2.6C3.5,1.7,1.7,3.5,2.6,5.1l0.2,0.4c0.6,1,0,2.3-1.1,2.6L1.3,8.2c-1.8,0.5-1.8,3,0,3.5l0.4,0.1
		C2,12,2.2,12.1,2.4,12.3c0.2,0.2,0.4,0.4,0.5,0.7C3,13.2,3.1,13.5,3,13.7C3,14,3,14.3,2.8,14.5l-0.2,0.4c-0.9,1.6,0.9,3.4,2.5,2.5
		l0.4-0.2C5.7,17,6,17,6.3,17c0.3,0,0.5,0,0.8,0.1c0.3,0.1,0.5,0.3,0.7,0.5C7.9,17.8,8,18,8.1,18.3l0.1,0.4c0.5,1.8,3,1.8,3.5,0
		l0.1-0.4c0.1-0.3,0.2-0.5,0.4-0.7c0.2-0.2,0.4-0.4,0.7-0.5c0.3-0.1,0.5-0.2,0.8-0.1c0.3,0,0.5,0.1,0.8,0.2l0.4,0.2
		c1.6,0.9,3.4-0.9,2.5-2.5l-0.2-0.4C17,14.3,17,14,17,13.7c0-0.3,0-0.5,0.1-0.8c0.1-0.3,0.3-0.5,0.5-0.7c0.2-0.2,0.4-0.3,0.7-0.4
		l0.4-0.1c1.8-0.5,1.8-3,0-3.5l-0.4-0.1C18,8,17.8,7.9,17.6,7.7c-0.2-0.2-0.4-0.4-0.5-0.7C17,6.8,16.9,6.5,17,6.3
		C17,6,17,5.7,17.2,5.5l0.2-0.4c0.9-1.6-0.9-3.4-2.5-2.5l-0.4,0.2C14.3,3,14,3,13.7,3c-0.3,0-0.5,0-0.8-0.1
		c-0.3-0.1-0.5-0.3-0.7-0.5C12.1,2.2,12,2,11.9,1.7L11.8,1.3L11.8,1.3z M10,13.7c-1,0-1.9-0.4-2.6-1.1C6.7,11.9,6.3,11,6.3,10
		c0-1,0.4-1.9,1.1-2.6C8.1,6.7,9,6.3,10,6.3c1,0,1.9,0.4,2.6,1.1c0.7,0.7,1.1,1.6,1.1,2.6c0,1-0.4,1.9-1.1,2.6
		C11.9,13.3,11,13.7,10,13.7L10,13.7z"/>
</g>
</svg>
