<?xml version="1.0" encoding="utf-8"?>
<!-- Generator: Adobe Illustrator 22.1.0, SVG Export Plug-In . SVG Version: 6.00 Build 0)  -->
<svg version="1.1" xmlns="http://www.w3.org/2000/svg" xmlns:xlink="http://www.w3.org/1999/xlink" x="0px" y="0px" width="46.9px"
	 height="44.9px" viewBox="0 0 46.9 44.9" style="enable-background:new 0 0 46.9 44.9;" xml:space="preserve">
<style type="text/css">
	.st0{display:none;}
	.st1{fill:url(#SVGID_1_);}
	.st2{fill:none;stroke:#221B17;stroke-width:2.5;stroke-linecap:round;stroke-linejoin:round;stroke-miterlimit:10;}
	.st3{fill:url(#SVGID_2_);}
	.st4{fill:url(#SVGID_3_);}
	.st5{fill:url(#SVGID_4_);}
	.st6{fill:url(#SVGID_5_);}
	.st7{fill:url(#SVGID_6_);}
	.st8{fill:url(#SVGID_7_);}
	.st9{fill:url(#SVGID_8_);}
	.st10{fill:url(#SVGID_9_);}
	.st11{fill:url(#SVGID_10_);}
	.st12{fill:url(#SVGID_11_);}
	.st13{fill:url(#SVGID_12_);}
	.st14{fill:url(#SVGID_13_);}
	.st15{fill:url(#SVGID_14_);}
	.st16{fill:url(#SVGID_15_);}
	.st17{fill:url(#SVGID_16_);}
	.st18{fill:url(#SVGID_17_);}
	.st19{fill:url(#SVGID_18_);}
	.st20{fill:url(#SVGID_19_);}
	.st21{fill:url(#SVGID_20_);}
	.st22{fill:url(#SVGID_21_);}
	.st23{fill:url(#SVGID_22_);}
	.st24{fill:url(#SVGID_23_);}
	.st25{fill:url(#SVGID_24_);}
	.st26{fill:url(#SVGID_25_);}
	.st27{fill:url(#SVGID_26_);}
</style>
<g id="圖層_1">
	<g id="ba3">
	</g>
	<g id="ba2">
	</g>
	<g id="好路投注">
	</g>
	<g id="有卡限紅" class="st0">
	</g>
	<g id="無卡限紅" class="st0">
	</g>
	<g id="ba3開始按鈕">
	</g>
	<g id="ba3_1_">
	</g>
	
		<linearGradient id="SVGID_1_" gradientUnits="userSpaceOnUse" x1="24.45" y1="2.1591" x2="24.45" y2="27.8462" gradientTransform="matrix(1 0 0 -1 0 45.8898)">
		<stop  offset="0" style="stop-color:#E9C156"/>
		<stop  offset="3.840363e-02" style="stop-color:#B28639"/>
		<stop  offset="8.129959e-02" style="stop-color:#79491C"/>
		<stop  offset="0.1018" style="stop-color:#633110"/>
		<stop  offset="0.1297" style="stop-color:#6F3C14"/>
		<stop  offset="0.1797" style="stop-color:#8D5A1E"/>
		<stop  offset="0.2453" style="stop-color:#BF8A2E"/>
		<stop  offset="0.2862" style="stop-color:#E1AB39"/>
		<stop  offset="0.3057" style="stop-color:#E3B141"/>
		<stop  offset="0.4117" style="stop-color:#EDCD66"/>
		<stop  offset="0.5174" style="stop-color:#F5E384"/>
		<stop  offset="0.6214" style="stop-color:#FBF299"/>
		<stop  offset="0.7229" style="stop-color:#FEFCA6"/>
		<stop  offset="0.8191" style="stop-color:#FFFFAA"/>
		<stop  offset="0.8528" style="stop-color:#FDFAA3"/>
		<stop  offset="0.9015" style="stop-color:#F8EC90"/>
		<stop  offset="0.959" style="stop-color:#F0D571"/>
		<stop  offset="1" style="stop-color:#E9C156"/>
	</linearGradient>
	<path class="st1" d="M24.5,44.9C15.4,44.9,8,37.5,8,28.5S15.4,12,24.5,12s16.4,7.4,16.4,16.4S33.5,44.9,24.5,44.9z M24.5,12.8
		c-8.7,0-15.7,7-15.7,15.7s7,15.7,15.7,15.7s15.7-7,15.7-15.7S33.1,12.8,24.5,12.8z"/>
	<polygon class="st2" points="13.2,20.9 15.7,20.9 11.9,31.4 8.1,20.9 10.5,20.9 10.5,19.7 2.1,19.7 2.1,20.9 4.2,20.9 10.1,37.3 
		11.3,37.3 17,20.9 19.2,20.9 19.2,19.7 13.2,19.7 	"/>
	<polygon class="st2" points="19.4,20.9 21.8,20.9 21.8,35.8 19.4,35.8 19.4,36.9 28.1,36.9 28.1,35.8 25.6,35.8 25.6,20.9 
		28.1,20.9 28.1,19.7 19.4,19.7 	"/>
	<path class="st2" d="M43,20.9c-1.2-0.8-2.9-1.1-5.1-1.1h-8.6V21h2.5v14.9h-2.5v1.2h8.9v-1.2h-2.7v-6.4H38c2,0,3.7-0.4,4.9-1.2
		c1.3-0.8,1.9-2.1,1.9-3.6C44.8,22.9,44.2,21.7,43,20.9z M35.5,20.9h2.8c0.9,0,1.5,0.3,1.9,0.8c0.4,0.6,0.6,1.5,0.6,2.7
		c0,1.3-0.2,2.3-0.6,2.9c-0.4,0.6-1,0.9-1.9,0.9h-2.7L35.5,20.9L35.5,20.9z"/>
	<g>
		<g>
			<g>
				<g>
					
						<linearGradient id="SVGID_2_" gradientUnits="userSpaceOnUse" x1="20.594" y1="31.9705" x2="20.594" y2="40.9193" gradientTransform="matrix(1 0 0 -1 0 45.8898)">
						<stop  offset="0" style="stop-color:#E9C156"/>
						<stop  offset="3.840363e-02" style="stop-color:#B28639"/>
						<stop  offset="8.129959e-02" style="stop-color:#79491C"/>
						<stop  offset="0.1018" style="stop-color:#633110"/>
						<stop  offset="0.1297" style="stop-color:#6F3C14"/>
						<stop  offset="0.1797" style="stop-color:#8D5A1E"/>
						<stop  offset="0.2453" style="stop-color:#BF8A2E"/>
						<stop  offset="0.2862" style="stop-color:#E1AB39"/>
						<stop  offset="0.3057" style="stop-color:#E3B141"/>
						<stop  offset="0.4117" style="stop-color:#EDCD66"/>
						<stop  offset="0.5174" style="stop-color:#F5E384"/>
						<stop  offset="0.6214" style="stop-color:#FBF299"/>
						<stop  offset="0.7229" style="stop-color:#FEFCA6"/>
						<stop  offset="0.8191" style="stop-color:#FFFFAA"/>
						<stop  offset="0.8528" style="stop-color:#FDFAA3"/>
						<stop  offset="0.9015" style="stop-color:#F8EC90"/>
						<stop  offset="0.959" style="stop-color:#F0D571"/>
						<stop  offset="1" style="stop-color:#E9C156"/>
					</linearGradient>
					<path class="st3" d="M17.4,7.9c0,0.1,0.1,0.2,0.1,0.4c0.1,0.2,0.4,0.4,0.5,0.5C18.3,8.8,18.5,9,18.6,9c0.2,0,0.4,0,0.6,0h0.1
						c0,0,0,0,0.1,0l0,0l0,0c0,0,0,0,0.1,0c0,0,0.1,0,0.1-0.1c0.1-0.1,0.2-0.2,0.2-0.4c0.1-0.2,0.1-0.4,0.1-0.6l0,0l0,0
						c0-0.1,0-0.1,0-0.1l0,0l0,0l0,0l0,0l0,0c0,0,0,0,0,0.1l0,0l0,0V8c0,0.1,0,0.2-0.1,0.5l0,0c-0.1,0.1-0.1,0.1-0.2,0.2
						c0,0,0,0-0.1,0l0,0l0,0l0,0l0,0l0,0l0,0l0,0h-0.1c-0.1,0-0.2,0-0.5,0c-0.1,0-0.2-0.1-0.4-0.2c-0.1-0.1-0.2-0.2-0.2-0.4
						s0-0.1-0.1-0.2c0-0.1,0-0.2,0-0.2c0-0.2,0-0.4,0.1-0.5c0.1-0.1,0.2-0.4,0.4-0.5c0.1-0.1,0.1-0.1,0.2-0.1c0,0,0.1,0,0.1-0.1h0.1
						c0,0,0,0,0.1,0l0,0l0,0l0,0l0,0h0.1c0.1,0,0.2,0,0.4,0c0.5,0,0.8,0.1,1.2,0.4c0.1,0.1,0.4,0.2,0.5,0.5c0.1,0.1,0.1,0.1,0.2,0.2
						c0,0,0,0.1,0.1,0.1c0,0,0,0.1,0.1,0.1c0,0,0,0.1,0.1,0.1l0,0l0,0l0,0l0,0l0,0l0,0c0,0,0,0,0,0.1v0.1v0.1c0,0.2,0.1,0.4,0.1,0.6
						c0,0.4,0,0.8-0.1,1.2s-0.2,0.7-0.5,0.9c-0.1,0.2-0.4,0.5-0.6,0.6l-0.1,0.1c-0.1,0.1-0.2,0.1-0.4,0.2h-0.1l0,0l0,0
						c0,0,0,0-0.1,0l0,0l0,0l0,0c-0.1,0-0.2,0.1-0.2,0.1l0,0h-0.1c-0.6,0.2-0.8,0.9-0.6,1.4c0.1,0.2,0.2,0.4,0.5,0.5
						c0.6-0.1,1.2-0.2,1.8-0.4c0.2-0.1,0.5-0.4,0.8-0.7c0.2-0.2,0.5-0.5,0.6-0.8c0.1-0.2,0.2-0.5,0.4-0.7c0.1-0.4,0.2-0.7,0.4-1.1
						c0.1-0.6,0.1-1.1,0.1-1.7c0-0.2-0.1-0.5-0.1-0.6s0-0.2-0.1-0.2c0-0.1,0-0.1-0.1-0.2c0-0.1-0.1-0.1-0.1-0.2s-0.1-0.1-0.1-0.2
						c0-0.1-0.1-0.1-0.1-0.2S23,6.7,23,6.6c0-0.1-0.1-0.1-0.1-0.2c-0.1-0.1-0.2-0.2-0.4-0.4c-0.2-0.2-0.5-0.5-0.8-0.6
						c-0.2-0.1-0.6-0.2-0.9-0.4c-0.4-0.1-0.7-0.1-1.1,0c-0.4,0-0.7,0.1-0.9,0.2c-0.1,0-0.1,0.1-0.2,0.1s-0.1,0.1-0.2,0.1
						c-0.1,0.1-0.2,0.2-0.4,0.4c-0.2,0.2-0.4,0.5-0.5,0.8c-0.1,0.2-0.1,0.6-0.1,0.8C17.4,7.7,17.4,7.8,17.4,7.9z"/>
				</g>
				
					<linearGradient id="SVGID_3_" gradientUnits="userSpaceOnUse" x1="24.4134" y1="38.7016" x2="24.4134" y2="45.9391" gradientTransform="matrix(1 0 0 -1 0 45.8898)">
					<stop  offset="0" style="stop-color:#E9C156"/>
					<stop  offset="3.840363e-02" style="stop-color:#B28639"/>
					<stop  offset="8.129959e-02" style="stop-color:#79491C"/>
					<stop  offset="0.1018" style="stop-color:#633110"/>
					<stop  offset="0.1297" style="stop-color:#6F3C14"/>
					<stop  offset="0.1797" style="stop-color:#8D5A1E"/>
					<stop  offset="0.2453" style="stop-color:#BF8A2E"/>
					<stop  offset="0.2862" style="stop-color:#E1AB39"/>
					<stop  offset="0.3057" style="stop-color:#E3B141"/>
					<stop  offset="0.4117" style="stop-color:#EDCD66"/>
					<stop  offset="0.5174" style="stop-color:#F5E384"/>
					<stop  offset="0.6214" style="stop-color:#FBF299"/>
					<stop  offset="0.7229" style="stop-color:#FEFCA6"/>
					<stop  offset="0.8191" style="stop-color:#FFFFAA"/>
					<stop  offset="0.8528" style="stop-color:#FDFAA3"/>
					<stop  offset="0.9015" style="stop-color:#F8EC90"/>
					<stop  offset="0.959" style="stop-color:#F0D571"/>
					<stop  offset="1" style="stop-color:#E9C156"/>
				</linearGradient>
				<path class="st4" d="M24.5,7.2c0.5-1.2,1.7-1.4,1.9-2.7C26.7,3.3,26,2.1,24.5,0l0,0c-1.5,2.1-2.3,3.2-2,4.5
					C22.8,5.6,24,6,24.5,7.2L24.5,7.2z"/>
				
					<linearGradient id="SVGID_4_" gradientUnits="userSpaceOnUse" x1="9.975" y1="40.956" x2="9.975" y2="40.956" gradientTransform="matrix(1 0 0 -1 0 45.8898)">
					<stop  offset="0" style="stop-color:#E9C156"/>
					<stop  offset="3.840363e-02" style="stop-color:#B28639"/>
					<stop  offset="8.129959e-02" style="stop-color:#79491C"/>
					<stop  offset="0.1018" style="stop-color:#633110"/>
					<stop  offset="0.1297" style="stop-color:#6F3C14"/>
					<stop  offset="0.1797" style="stop-color:#8D5A1E"/>
					<stop  offset="0.2453" style="stop-color:#BF8A2E"/>
					<stop  offset="0.2862" style="stop-color:#E1AB39"/>
					<stop  offset="0.3057" style="stop-color:#E3B141"/>
					<stop  offset="0.4117" style="stop-color:#EDCD66"/>
					<stop  offset="0.5174" style="stop-color:#F5E384"/>
					<stop  offset="0.6214" style="stop-color:#FBF299"/>
					<stop  offset="0.7229" style="stop-color:#FEFCA6"/>
					<stop  offset="0.8191" style="stop-color:#FFFFAA"/>
					<stop  offset="0.8528" style="stop-color:#FDFAA3"/>
					<stop  offset="0.9015" style="stop-color:#F8EC90"/>
					<stop  offset="0.959" style="stop-color:#F0D571"/>
					<stop  offset="1" style="stop-color:#E9C156"/>
				</linearGradient>
				<path class="st5" d="M10,4.9L10,4.9L10,4.9L10,4.9z"/>
				
					<linearGradient id="SVGID_5_" gradientUnits="userSpaceOnUse" x1="15.1853" y1="34.7115" x2="15.1853" y2="38.9184" gradientTransform="matrix(1 0 0 -1 0 45.8898)">
					<stop  offset="0" style="stop-color:#E9C156"/>
					<stop  offset="3.840363e-02" style="stop-color:#B28639"/>
					<stop  offset="8.129959e-02" style="stop-color:#79491C"/>
					<stop  offset="0.1018" style="stop-color:#633110"/>
					<stop  offset="0.1297" style="stop-color:#6F3C14"/>
					<stop  offset="0.1797" style="stop-color:#8D5A1E"/>
					<stop  offset="0.2453" style="stop-color:#BF8A2E"/>
					<stop  offset="0.2862" style="stop-color:#E1AB39"/>
					<stop  offset="0.3057" style="stop-color:#E3B141"/>
					<stop  offset="0.4117" style="stop-color:#EDCD66"/>
					<stop  offset="0.5174" style="stop-color:#F5E384"/>
					<stop  offset="0.6214" style="stop-color:#FBF299"/>
					<stop  offset="0.7229" style="stop-color:#FEFCA6"/>
					<stop  offset="0.8191" style="stop-color:#FFFFAA"/>
					<stop  offset="0.8528" style="stop-color:#FDFAA3"/>
					<stop  offset="0.9015" style="stop-color:#F8EC90"/>
					<stop  offset="0.959" style="stop-color:#F0D571"/>
					<stop  offset="1" style="stop-color:#E9C156"/>
				</linearGradient>
				<path class="st6" d="M14.5,7c0.4,0.1,0.6,0.2,0.9,0.4c0,0-0.7,2.4,0.6,3.8C16,11.2,13.8,9.8,14.5,7z"/>
				<g>
					
						<linearGradient id="SVGID_6_" gradientUnits="userSpaceOnUse" x1="28.4398" y1="31.9696" x2="28.4398" y2="41.0592" gradientTransform="matrix(1 0 0 -1 0 45.8898)">
						<stop  offset="0" style="stop-color:#E9C156"/>
						<stop  offset="3.840363e-02" style="stop-color:#B28639"/>
						<stop  offset="8.129959e-02" style="stop-color:#79491C"/>
						<stop  offset="0.1018" style="stop-color:#633110"/>
						<stop  offset="0.1297" style="stop-color:#6F3C14"/>
						<stop  offset="0.1797" style="stop-color:#8D5A1E"/>
						<stop  offset="0.2453" style="stop-color:#BF8A2E"/>
						<stop  offset="0.2862" style="stop-color:#E1AB39"/>
						<stop  offset="0.3057" style="stop-color:#E3B141"/>
						<stop  offset="0.4117" style="stop-color:#EDCD66"/>
						<stop  offset="0.5174" style="stop-color:#F5E384"/>
						<stop  offset="0.6214" style="stop-color:#FBF299"/>
						<stop  offset="0.7229" style="stop-color:#FEFCA6"/>
						<stop  offset="0.8191" style="stop-color:#FFFFAA"/>
						<stop  offset="0.8528" style="stop-color:#FDFAA3"/>
						<stop  offset="0.9015" style="stop-color:#F8EC90"/>
						<stop  offset="0.959" style="stop-color:#F0D571"/>
						<stop  offset="1" style="stop-color:#E9C156"/>
					</linearGradient>
					<path class="st7" d="M25.6,11.1c0.2,0.2,0.5,0.6,0.6,0.9c0.2,0.2,0.4,0.5,0.6,0.7c0.2,0.2,0.5,0.5,0.7,0.6
						c0.6,0.1,1.2,0.2,1.8,0.4c0.2-0.1,0.4-0.4,0.5-0.6c0.1-0.6-0.1-1.2-0.7-1.4c0,0-0.1,0-0.2,0l0,0l0,0l0,0c0,0,0,0-0.1,0h-0.1
						h-0.1c-0.1-0.1-0.4-0.1-0.5-0.4c0,0,0,0-0.1-0.1l0,0c0-0.1-0.2-0.4-0.4-0.6c-0.2-0.2-0.4-0.6-0.5-0.9c-0.1-0.4-0.2-0.7-0.2-1.2
						c0-0.2,0-0.4,0.1-0.6V7.8V7.7c0,0,0,0,0-0.1l0,0l0,0l0,0l0,0c0,0,0-0.1,0.1-0.1c0.2-0.4,0.5-0.7,0.8-1.1
						c0.5-0.2,0.8-0.5,1.3-0.5c0.1,0,0.2,0,0.4,0h0.1l0,0l0,0l0,0h0.1h0.1c0,0,0.1,0,0.1,0.1c0.1,0,0.2,0.1,0.2,0.2
						c0.4,0.2,0.5,0.7,0.5,1.1c0,0.1,0,0.2,0,0.2c0,0.1,0,0.2-0.1,0.2c-0.1,0.1-0.2,0.4-0.4,0.4c-0.2,0.2-0.6,0.2-0.9,0.2h-0.1l0,0
						l0,0l0,0l0,0c0,0,0,0-0.1,0c-0.1-0.1-0.2-0.1-0.2-0.2c0,0,0-0.1-0.1-0.1c0-0.1-0.1-0.2,0-0.4c0-0.1,0-0.1,0-0.1l0,0l0,0
						c0,0,0,0,0-0.1h-0.1l0,0l0,0l0,0v0.1c0,0.1,0,0.4,0.1,0.6c0,0.1,0.1,0.2,0.2,0.4c0,0,0.1,0,0.1,0.1c0,0,0,0,0.1,0l0,0l0,0l0,0
						c0,0,0,0,0.1,0h0.1c0.2,0,0.4,0.1,0.6,0.1c0.2,0,0.5-0.1,0.7-0.2c0.4,0.2,0.6,0,0.7-0.2V8.1l0,0l0,0c0-0.1,0-0.1,0.1-0.2
						c0-0.1,0.1-0.2,0.1-0.4c0.1-0.6-0.1-1.2-0.6-1.7c-0.1-0.1-0.2-0.2-0.4-0.4c-0.1,0-0.1-0.1-0.2-0.1c-0.1,0-0.1-0.1-0.2-0.1h-0.1
						l0,0l0,0l0,0c-0.1,0-0.1,0-0.2-0.1c-0.1,0-0.4-0.1-0.5-0.1c-0.4,0-0.7,0-1.1,0c-0.4,0.1-0.7,0.2-0.9,0.4
						c-0.5,0-0.8,0.2-1.1,0.5C26.2,6,26.1,6.1,26,6.2c0,0.1-0.1,0.1-0.1,0.2c0,0.1-0.1,0.1-0.1,0.2S25.6,6.8,25.6,7
						c0,0.1-0.1,0.1-0.1,0.2c0,0.1-0.1,0.1-0.1,0.2s0,0.1-0.1,0.2v0.1c0,0.1,0,0.5-0.1,0.7c0,0.6,0,1.2,0.1,1.8
						C25.4,10.5,25.5,10.7,25.6,11.1z"/>
				</g>
				
					<linearGradient id="SVGID_7_" gradientUnits="userSpaceOnUse" x1="24.5093" y1="28.8909" x2="24.5093" y2="42.2243" gradientTransform="matrix(1 0 0 -1 0 45.8898)">
					<stop  offset="0" style="stop-color:#E9C156"/>
					<stop  offset="3.840363e-02" style="stop-color:#B28639"/>
					<stop  offset="8.129959e-02" style="stop-color:#79491C"/>
					<stop  offset="0.1018" style="stop-color:#633110"/>
					<stop  offset="0.1297" style="stop-color:#6F3C14"/>
					<stop  offset="0.1797" style="stop-color:#8D5A1E"/>
					<stop  offset="0.2453" style="stop-color:#BF8A2E"/>
					<stop  offset="0.2862" style="stop-color:#E1AB39"/>
					<stop  offset="0.3127" style="stop-color:#E4B344"/>
					<stop  offset="0.4172" style="stop-color:#EECE69"/>
					<stop  offset="0.5215" style="stop-color:#F5E387"/>
					<stop  offset="0.624" style="stop-color:#FBF39C"/>
					<stop  offset="0.7242" style="stop-color:#FEFCA9"/>
					<stop  offset="0.8191" style="stop-color:#FFFFAD"/>
					<stop  offset="0.852" style="stop-color:#FDFAA6"/>
					<stop  offset="0.8996" style="stop-color:#F8EC93"/>
					<stop  offset="0.9557" style="stop-color:#F1D674"/>
					<stop  offset="1" style="stop-color:#E9C156"/>
				</linearGradient>
				<path class="st8" d="M16,15.1c2.6-1.3,5.6-2.1,8.4-2.1c3.1,0,6.1,0.8,8.5,2.1c0.9-1.9,1.9-3.7,2.8-5.5c0.9-1.7,2-3.2,3.1-4.9
					c-2,0.8-4,1.8-4,1.8l0,0c0.8,1.4,0,3.3-1.3,4.3c-1.1,0.7-2.1,1.2-3.6,0.9c-0.7-0.1-1.3-0.4-2-0.7l0,0c-1.1-0.7-2-2-2.7-3.6
					c-0.1-0.4-0.4-0.8-0.5-1.3c-0.2-0.8-0.4-1.8-0.5-2.7l0,0c0,0.9-0.2,1.9-0.5,2.7c-0.1,0.5-0.4,0.9-0.5,1.4
					c-0.7,1.7-1.7,2.8-2.8,3.6c-0.6,0.4-1.1,0.5-1.7,0.6c-1.4,0.1-2.5-0.2-3.6-0.9c-1.2-0.8-2-2.6-1.2-4.2l0,0c0,0-2-0.9-4-1.8
					c1.1,1.5,2.1,3.2,3.1,4.9C14.1,11.6,15.1,13.4,16,15.1z"/>
				
					<linearGradient id="SVGID_8_" gradientUnits="userSpaceOnUse" x1="38.925" y1="40.956" x2="38.925" y2="40.956" gradientTransform="matrix(1 0 0 -1 0 45.8898)">
					<stop  offset="0" style="stop-color:#E9C156"/>
					<stop  offset="3.840363e-02" style="stop-color:#B28639"/>
					<stop  offset="8.129959e-02" style="stop-color:#79491C"/>
					<stop  offset="0.1018" style="stop-color:#633110"/>
					<stop  offset="0.1297" style="stop-color:#6F3C14"/>
					<stop  offset="0.1797" style="stop-color:#8D5A1E"/>
					<stop  offset="0.2453" style="stop-color:#BF8A2E"/>
					<stop  offset="0.2862" style="stop-color:#E1AB39"/>
					<stop  offset="0.3057" style="stop-color:#E3B141"/>
					<stop  offset="0.4117" style="stop-color:#EDCD66"/>
					<stop  offset="0.5174" style="stop-color:#F5E384"/>
					<stop  offset="0.6214" style="stop-color:#FBF299"/>
					<stop  offset="0.7229" style="stop-color:#FEFCA6"/>
					<stop  offset="0.8191" style="stop-color:#FFFFAA"/>
					<stop  offset="0.8528" style="stop-color:#FDFAA3"/>
					<stop  offset="0.9015" style="stop-color:#F8EC90"/>
					<stop  offset="0.959" style="stop-color:#F0D571"/>
					<stop  offset="1" style="stop-color:#E9C156"/>
				</linearGradient>
				<path class="st9" d="M38.9,4.9L38.9,4.9L38.9,4.9L38.9,4.9z"/>
				
					<linearGradient id="SVGID_9_" gradientUnits="userSpaceOnUse" x1="33.7334" y1="34.7115" x2="33.7334" y2="38.9184" gradientTransform="matrix(1 0 0 -1 0 45.8898)">
					<stop  offset="0" style="stop-color:#E9C156"/>
					<stop  offset="3.840363e-02" style="stop-color:#B28639"/>
					<stop  offset="8.129959e-02" style="stop-color:#79491C"/>
					<stop  offset="0.1018" style="stop-color:#633110"/>
					<stop  offset="0.1297" style="stop-color:#6F3C14"/>
					<stop  offset="0.1797" style="stop-color:#8D5A1E"/>
					<stop  offset="0.2453" style="stop-color:#BF8A2E"/>
					<stop  offset="0.2862" style="stop-color:#E1AB39"/>
					<stop  offset="0.3057" style="stop-color:#E3B141"/>
					<stop  offset="0.4117" style="stop-color:#EDCD66"/>
					<stop  offset="0.5174" style="stop-color:#F5E384"/>
					<stop  offset="0.6214" style="stop-color:#FBF299"/>
					<stop  offset="0.7229" style="stop-color:#FEFCA6"/>
					<stop  offset="0.8191" style="stop-color:#FFFFAA"/>
					<stop  offset="0.8528" style="stop-color:#FDFAA3"/>
					<stop  offset="0.9015" style="stop-color:#F8EC90"/>
					<stop  offset="0.959" style="stop-color:#F0D571"/>
					<stop  offset="1" style="stop-color:#E9C156"/>
				</linearGradient>
				<path class="st10" d="M34.4,7c-0.4,0.1-0.6,0.2-0.9,0.4c0,0,0.7,2.4-0.6,3.8C32.9,11.2,35.2,9.8,34.4,7z"/>
			</g>
		</g>
		
			<linearGradient id="SVGID_10_" gradientUnits="userSpaceOnUse" x1="19.8227" y1="37.6667" x2="19.8227" y2="38.5403" gradientTransform="matrix(1 0 0 -1 0 45.8898)">
			<stop  offset="0" style="stop-color:#E9C156"/>
			<stop  offset="3.840363e-02" style="stop-color:#B28639"/>
			<stop  offset="8.129959e-02" style="stop-color:#79491C"/>
			<stop  offset="0.1018" style="stop-color:#633110"/>
			<stop  offset="0.1297" style="stop-color:#6F3C14"/>
			<stop  offset="0.1797" style="stop-color:#8D5A1E"/>
			<stop  offset="0.2453" style="stop-color:#BF8A2E"/>
			<stop  offset="0.2862" style="stop-color:#E1AB39"/>
			<stop  offset="0.3057" style="stop-color:#E3B141"/>
			<stop  offset="0.4117" style="stop-color:#EDCD66"/>
			<stop  offset="0.5174" style="stop-color:#F5E384"/>
			<stop  offset="0.6214" style="stop-color:#FBF299"/>
			<stop  offset="0.7229" style="stop-color:#FEFCA6"/>
			<stop  offset="0.8191" style="stop-color:#FFFFAA"/>
			<stop  offset="0.8528" style="stop-color:#FDFAA3"/>
			<stop  offset="0.9015" style="stop-color:#F8EC90"/>
			<stop  offset="0.959" style="stop-color:#F0D571"/>
			<stop  offset="1" style="stop-color:#E9C156"/>
		</linearGradient>
		<path class="st11" d="M20.2,7.8c0,0.2-0.1,0.5-0.4,0.5S19.5,8,19.5,7.8c0-0.2,0.1-0.5,0.4-0.5C20.1,7.3,20.2,7.5,20.2,7.8z"/>
		
			<linearGradient id="SVGID_11_" gradientUnits="userSpaceOnUse" x1="29.1959" y1="37.7153" x2="29.1959" y2="38.5888" gradientTransform="matrix(1 0 0 -1 0 45.8898)">
			<stop  offset="0" style="stop-color:#E9C156"/>
			<stop  offset="3.840363e-02" style="stop-color:#B28639"/>
			<stop  offset="8.129959e-02" style="stop-color:#79491C"/>
			<stop  offset="0.1018" style="stop-color:#633110"/>
			<stop  offset="0.1297" style="stop-color:#6F3C14"/>
			<stop  offset="0.1797" style="stop-color:#8D5A1E"/>
			<stop  offset="0.2453" style="stop-color:#BF8A2E"/>
			<stop  offset="0.2862" style="stop-color:#E1AB39"/>
			<stop  offset="0.3057" style="stop-color:#E3B141"/>
			<stop  offset="0.4117" style="stop-color:#EDCD66"/>
			<stop  offset="0.5174" style="stop-color:#F5E384"/>
			<stop  offset="0.6214" style="stop-color:#FBF299"/>
			<stop  offset="0.7229" style="stop-color:#FEFCA6"/>
			<stop  offset="0.8191" style="stop-color:#FFFFAA"/>
			<stop  offset="0.8528" style="stop-color:#FDFAA3"/>
			<stop  offset="0.9015" style="stop-color:#F8EC90"/>
			<stop  offset="0.959" style="stop-color:#F0D571"/>
			<stop  offset="1" style="stop-color:#E9C156"/>
		</linearGradient>
		<path class="st12" d="M29.6,7.8c0,0.2-0.1,0.5-0.4,0.5c-0.2,0-0.4-0.2-0.4-0.5c0-0.2,0.1-0.5,0.4-0.5C29.3,7.3,29.6,7.5,29.6,7.8z
			"/>
	</g>
	<g id="tip">
	</g>
	<g id="圖層_2_1_" class="st0">
	</g>
</g>
<g id="圖層_2">
	<g>
		<g>
			
				<linearGradient id="SVGID_12_" gradientUnits="userSpaceOnUse" x1="10.65" y1="28.2086" x2="10.65" y2="6.1858" gradientTransform="matrix(1 0 0 -1 0 45.8898)">
				<stop  offset="0" style="stop-color:#C39434"/>
				<stop  offset="0.19" style="stop-color:#7F4B0C"/>
				<stop  offset="0.3242" style="stop-color:#C39434"/>
				<stop  offset="0.3556" style="stop-color:#C99E41"/>
				<stop  offset="0.4135" style="stop-color:#DAB863"/>
				<stop  offset="0.491" style="stop-color:#F4E399"/>
				<stop  offset="0.52" style="stop-color:#FFF4AF"/>
				<stop  offset="0.5539" style="stop-color:#FDF0AA"/>
				<stop  offset="0.5918" style="stop-color:#F6E69D"/>
				<stop  offset="0.6316" style="stop-color:#EBD487"/>
				<stop  offset="0.6728" style="stop-color:#DCBC67"/>
				<stop  offset="0.7146" style="stop-color:#C99D3F"/>
				<stop  offset="0.7253" style="stop-color:#C39434"/>
				<stop  offset="0.83" style="stop-color:#8F4F18"/>
				<stop  offset="0.93" style="stop-color:#FFD452"/>
				<stop  offset="1" style="stop-color:#C39434"/>
			</linearGradient>
			<polygon class="st13" points="10.1,37.3 4.2,20.9 2.1,20.9 2.1,19.7 10.5,19.7 10.5,20.9 8.1,20.9 11.9,31.4 15.7,20.9 
				13.2,20.9 13.2,19.7 19.2,19.7 19.2,20.9 17,20.9 11.3,37.3 			"/>
			
				<linearGradient id="SVGID_13_" gradientUnits="userSpaceOnUse" x1="23.75" y1="28.2086" x2="23.75" y2="6.1857" gradientTransform="matrix(1 0 0 -1 0 45.8898)">
				<stop  offset="0" style="stop-color:#C39434"/>
				<stop  offset="0.19" style="stop-color:#7F4B0C"/>
				<stop  offset="0.3242" style="stop-color:#C39434"/>
				<stop  offset="0.3556" style="stop-color:#C99E41"/>
				<stop  offset="0.4135" style="stop-color:#DAB863"/>
				<stop  offset="0.491" style="stop-color:#F4E399"/>
				<stop  offset="0.52" style="stop-color:#FFF4AF"/>
				<stop  offset="0.5539" style="stop-color:#FDF0AA"/>
				<stop  offset="0.5918" style="stop-color:#F6E69D"/>
				<stop  offset="0.6316" style="stop-color:#EBD487"/>
				<stop  offset="0.6728" style="stop-color:#DCBC67"/>
				<stop  offset="0.7146" style="stop-color:#C99D3F"/>
				<stop  offset="0.7253" style="stop-color:#C39434"/>
				<stop  offset="0.83" style="stop-color:#8F4F18"/>
				<stop  offset="0.93" style="stop-color:#FFD452"/>
				<stop  offset="1" style="stop-color:#C39434"/>
			</linearGradient>
			<polygon class="st14" points="19.4,36.9 19.4,35.8 21.8,35.8 21.8,20.9 19.4,20.9 19.4,19.7 28.1,19.7 28.1,20.9 25.6,20.9 
				25.6,35.8 28.1,35.8 28.1,36.9 			"/>
			
				<linearGradient id="SVGID_14_" gradientUnits="userSpaceOnUse" x1="37.1" y1="28.2086" x2="37.1" y2="6.1857" gradientTransform="matrix(1 0 0 -1 0 45.8898)">
				<stop  offset="0" style="stop-color:#C39434"/>
				<stop  offset="0.19" style="stop-color:#7F4B0C"/>
				<stop  offset="0.3242" style="stop-color:#C39434"/>
				<stop  offset="0.3556" style="stop-color:#C99E41"/>
				<stop  offset="0.4135" style="stop-color:#DAB863"/>
				<stop  offset="0.491" style="stop-color:#F4E399"/>
				<stop  offset="0.52" style="stop-color:#FFF4AF"/>
				<stop  offset="0.5539" style="stop-color:#FDF0AA"/>
				<stop  offset="0.5918" style="stop-color:#F6E69D"/>
				<stop  offset="0.6316" style="stop-color:#EBD487"/>
				<stop  offset="0.6728" style="stop-color:#DCBC67"/>
				<stop  offset="0.7146" style="stop-color:#C99D3F"/>
				<stop  offset="0.7253" style="stop-color:#C39434"/>
				<stop  offset="0.83" style="stop-color:#8F4F18"/>
				<stop  offset="0.93" style="stop-color:#FFD452"/>
				<stop  offset="1" style="stop-color:#C39434"/>
			</linearGradient>
			<path class="st15" d="M29.3,36.9v-1.2h2.5V20.9h-2.5v-1.2h8.6c2.2,0,3.9,0.4,5.1,1.1c1.2,0.8,1.9,2,1.9,3.6S44.3,27.2,43,28
				c-1.2,0.8-2.9,1.2-4.9,1.2h-2.5v6.4h2.7v1.2L29.3,36.9L29.3,36.9z M38.2,28.2c0.9,0,1.5-0.3,1.9-0.9s0.6-1.6,0.6-2.9
				c0-1.2-0.2-2.1-0.6-2.7c-0.4-0.6-1-0.8-1.9-0.8h-2.8v7.3H38.2z"/>
			
				<linearGradient id="SVGID_15_" gradientUnits="userSpaceOnUse" x1="10.65" y1="36.8998" x2="10.65" y2="7.7405" gradientTransform="matrix(1 0 0 -1 0 45.8898)">
				<stop  offset="0.4071" style="stop-color:#FFFFAD"/>
				<stop  offset="0.4863" style="stop-color:#F8EC92"/>
				<stop  offset="0.646" style="stop-color:#ECC962"/>
				<stop  offset="0.7681" style="stop-color:#E4B344"/>
				<stop  offset="0.837" style="stop-color:#E1AB39"/>
				<stop  offset="0.8914" style="stop-color:#DEA83C"/>
				<stop  offset="0.9365" style="stop-color:#D39D44"/>
				<stop  offset="0.9783" style="stop-color:#C28C52"/>
				<stop  offset="1" style="stop-color:#B6805C"/>
			</linearGradient>
			<path class="st16" d="M16.8,20.6L11.1,37h-0.7l-6-16.4h-2V20h7.9v0.6H7.7l4.2,11.6l4.2-11.6h-2.6V20h5.4v0.6H16.8z"/>
			
				<linearGradient id="SVGID_16_" gradientUnits="userSpaceOnUse" x1="23.75" y1="36.8998" x2="23.75" y2="7.7406" gradientTransform="matrix(1 0 0 -1 0 45.8898)">
				<stop  offset="0.4071" style="stop-color:#FFFFAD"/>
				<stop  offset="0.4863" style="stop-color:#F8EC92"/>
				<stop  offset="0.646" style="stop-color:#ECC962"/>
				<stop  offset="0.7681" style="stop-color:#E4B344"/>
				<stop  offset="0.837" style="stop-color:#E1AB39"/>
				<stop  offset="0.8914" style="stop-color:#DEA83C"/>
				<stop  offset="0.9365" style="stop-color:#D39D44"/>
				<stop  offset="0.9783" style="stop-color:#C28C52"/>
				<stop  offset="1" style="stop-color:#B6805C"/>
			</linearGradient>
			<path class="st17" d="M19.7,36.6V36h2.5V20.6h-2.5V20h8.1v0.6h-2.5V36h2.5v0.6H19.7z"/>
			
				<linearGradient id="SVGID_17_" gradientUnits="userSpaceOnUse" x1="37.0554" y1="36.8998" x2="37.0554" y2="7.7406" gradientTransform="matrix(1 0 0 -1 0 45.8898)">
				<stop  offset="0.4071" style="stop-color:#FFFFAD"/>
				<stop  offset="0.4863" style="stop-color:#F8EC92"/>
				<stop  offset="0.646" style="stop-color:#ECC962"/>
				<stop  offset="0.7681" style="stop-color:#E4B344"/>
				<stop  offset="0.837" style="stop-color:#E1AB39"/>
				<stop  offset="0.8914" style="stop-color:#DEA83C"/>
				<stop  offset="0.9365" style="stop-color:#D39D44"/>
				<stop  offset="0.9783" style="stop-color:#C28C52"/>
				<stop  offset="1" style="stop-color:#B6805C"/>
			</linearGradient>
			<path class="st18" d="M42.8,27.9c-1.2,0.8-2.8,1.2-4.8,1.2h-2.8v7h2.7v0.6h-8.3V36h2.5V20.6h-2.5V20h8.3c2.1,0,3.8,0.4,4.9,1.1
				c1.2,0.7,1.7,1.9,1.7,3.4C44.6,26,44,27.1,42.8,27.9z M40.4,21.6c-0.4-0.6-1.1-1-2.1-1h-3v7.9h2.9c1,0,1.7-0.3,2.2-1
				s0.7-1.7,0.7-3.1C41.1,23.2,40.8,22.2,40.4,21.6z"/>
			<g>
				
					<linearGradient id="SVGID_18_" gradientUnits="userSpaceOnUse" x1="16.05" y1="14.4234" x2="16.05" y2="22.4681" gradientTransform="matrix(1 0 0 -1 0 45.8898)">
					<stop  offset="5.025131e-03" style="stop-color:#FFF6B1"/>
					<stop  offset="1" style="stop-color:#FFF6B1;stop-opacity:0"/>
				</linearGradient>
				<polygon class="st19" points="13.4,28.6 13.9,28.6 16.7,20.5 18.7,20.5 18.7,20.2 13.6,20.2 13.6,20.5 16.3,20.5 				"/>
				
					<linearGradient id="SVGID_19_" gradientUnits="userSpaceOnUse" x1="6.45" y1="14.4234" x2="6.45" y2="22.4681" gradientTransform="matrix(1 0 0 -1 0 45.8898)">
					<stop  offset="5.025131e-03" style="stop-color:#FFF6B1"/>
					<stop  offset="1" style="stop-color:#FFF6B1;stop-opacity:0"/>
				</linearGradient>
				<polygon class="st20" points="7.4,28.6 10.4,28.6 7.5,20.5 10.1,20.5 10.1,20.2 2.5,20.2 2.5,20.5 4.5,20.5 				"/>
			</g>
			
				<linearGradient id="SVGID_20_" gradientUnits="userSpaceOnUse" x1="23.7" y1="14.4234" x2="23.7" y2="22.4681" gradientTransform="matrix(1 0 0 -1 0 45.8898)">
				<stop  offset="5.025131e-03" style="stop-color:#FFF6B1"/>
				<stop  offset="1" style="stop-color:#FFF6B1;stop-opacity:0"/>
			</linearGradient>
			<polygon class="st21" points="22.3,28.6 25.2,28.6 25.2,20.5 27.6,20.5 27.6,20.2 19.8,20.2 19.8,20.5 22.3,20.5 			"/>
			
				<linearGradient id="SVGID_21_" gradientUnits="userSpaceOnUse" x1="37.1" y1="14.4234" x2="37.1" y2="22.4681" gradientTransform="matrix(1 0 0 -1 0 45.8898)">
				<stop  offset="5.025131e-03" style="stop-color:#FFF6B1"/>
				<stop  offset="1" style="stop-color:#FFF6B1;stop-opacity:0"/>
			</linearGradient>
			<path class="st22" d="M32.2,28.6h2.9v-8.1h3.2c1,0,1.8,0.3,2.2,1s0.7,1.7,0.7,3c0,1.4-0.2,2.5-0.7,3.1c-0.3,0.5-0.8,0.8-1.4,1H41
				c0.6-0.2,1.2-0.5,1.7-0.8c1.1-0.8,1.7-1.9,1.7-3.3c0-1.5-0.6-2.6-1.7-3.3c-1.1-0.7-2.8-1.1-4.8-1.1h-8.1v0.3h2.5v8.2H32.2z"/>
		</g>
		
			<radialGradient id="SVGID_22_" cx="1145.8846" cy="-423.5455" r="4.8109" gradientTransform="matrix(0.4168 -0.1225 -0.4349 -1.48 -654.2928 -456.8799)" gradientUnits="userSpaceOnUse">
			<stop  offset="0" style="stop-color:#FFF6B1"/>
			<stop  offset="0.1232" style="stop-color:#FFF6B1;stop-opacity:0.8768"/>
			<stop  offset="1" style="stop-color:#FFF6B1;stop-opacity:0"/>
		</radialGradient>
		<path class="st23" d="M9.5,29c1.2,3.9,1.2,7.4,0.1,7.7s-2.9-2.6-4.1-6.5s-1.2-7.4-0.1-7.7C6.5,22.2,8.3,25.1,9.5,29z"/>
		
			<radialGradient id="SVGID_23_" cx="1137.5029" cy="-421.2679" r="4.812" gradientTransform="matrix(0.4369 -0.1284 -0.4349 -1.48 -670.4947 -452.1181)" gradientUnits="userSpaceOnUse">
			<stop  offset="0" style="stop-color:#FFFFFF"/>
			<stop  offset="0.1232" style="stop-color:#FFFFFF;stop-opacity:0.8768"/>
			<stop  offset="1" style="stop-color:#FFFFFF;stop-opacity:0"/>
		</radialGradient>
		<path class="st24" d="M11.8,24.7c1.2,3.9,1.2,7.4,0,7.7s-3-2.6-4.2-6.5s-1.2-7.4,0-7.7S10.6,20.8,11.8,24.7z"/>
		
			<radialGradient id="SVGID_24_" cx="2474.2834" cy="-331.4122" r="4.8147" gradientTransform="matrix(0.4554 1.000000e-04 2.000000e-04 -1.719 -1104.6459 -541.9025)" gradientUnits="userSpaceOnUse">
			<stop  offset="0" style="stop-color:#FFF6B1"/>
			<stop  offset="0.1232" style="stop-color:#FFF6B1;stop-opacity:0.8768"/>
			<stop  offset="1" style="stop-color:#FFF6B1;stop-opacity:0"/>
		</radialGradient>
		<path class="st25" d="M24.3,28c0,4.6-1,8.3-2.2,8.3s-2.2-3.7-2.2-8.3s1-8.3,2.2-8.3S24.3,23.5,24.3,28z"/>
		
			<radialGradient id="SVGID_25_" cx="3745.9692" cy="-596.748" r="4.813" gradientTransform="matrix(0.3539 8.289488e-02 0.2084 -0.8899 -1156.8418 -816.2433)" gradientUnits="userSpaceOnUse">
			<stop  offset="0" style="stop-color:#FFFFFF"/>
			<stop  offset="0.1232" style="stop-color:#FFFFFF;stop-opacity:0.8768"/>
			<stop  offset="1" style="stop-color:#FFFFFF;stop-opacity:0"/>
		</radialGradient>
		<path class="st26" d="M46.2,25.7c-0.6,2.4-1.8,4.1-2.7,3.9s-1.3-2.3-0.7-4.7s1.8-4.1,2.7-3.9C46.5,21.2,46.8,23.3,46.2,25.7z"/>
		
			<radialGradient id="SVGID_26_" cx="2303.6675" cy="-714.5876" r="4.8145" gradientTransform="matrix(0.2826 -2.000000e-03 -9.300000e-03 -1.323 -622.3177 -914.4601)" gradientUnits="userSpaceOnUse">
			<stop  offset="0" style="stop-color:#FFF6B1"/>
			<stop  offset="0.1232" style="stop-color:#FFF6B1;stop-opacity:0.8768"/>
			<stop  offset="1" style="stop-color:#FFF6B1;stop-opacity:0"/>
		</radialGradient>
		<path class="st27" d="M36.7,26.3c0,3.5-0.6,6.4-1.3,6.4c-0.8,0-1.4-2.8-1.4-6.4c0-3.5,0.6-6.4,1.3-6.4
			C36.1,20,36.7,22.8,36.7,26.3z"/>
	</g>
</g>
</svg>
