<?xml version="1.0" encoding="utf-8"?>
<!-- Generator: Adobe Illustrator 23.0.3, SVG Export Plug-In . SVG Version: 6.00 Build 0)  -->
<svg version="1.1" id="圖層_1" xmlns="http://www.w3.org/2000/svg" xmlns:xlink="http://www.w3.org/1999/xlink" x="0px" y="0px"
	 width="25.3px" height="26.2px" viewBox="0 0 25.3 26.2" style="enable-background:new 0 0 25.3 26.2;" xml:space="preserve">
<style type="text/css">
	.st0{fill:url(#SVGID_1_);}
	.st1{fill:#FFFFFF;}
	.st2{fill-rule:evenodd;clip-rule:evenodd;fill:#FFFFFF;}
	.st3{fill-rule:evenodd;clip-rule:evenodd;fill:url(#SVGID_2_);}
	.st4{fill-rule:evenodd;clip-rule:evenodd;fill:url(#SVGID_3_);}
	.st5{fill:none;stroke:#FFFFFF;stroke-width:1.4286;}
	.st6{fill:none;stroke:#FFFFFF;stroke-width:1.2;stroke-miterlimit:10;}
	.st7{fill:#BCBCBC;stroke:#FFFFFF;stroke-width:1.2;stroke-linecap:round;stroke-linejoin:round;stroke-miterlimit:10;}
	.st8{fill:none;stroke:#FFFFFF;stroke-width:1.2;stroke-linecap:round;stroke-linejoin:round;stroke-miterlimit:10;}
	.st9{fill:url(#SVGID_4_);}
	.st10{fill:url(#SVGID_5_);}
	.st11{fill:url(#SVGID_6_);}
	.st12{fill:url(#SVGID_7_);}
	.st13{fill:url(#SVGID_8_);}
	.st14{fill:url(#SVGID_9_);}
	.st15{fill:url(#SVGID_10_);}
	.st16{fill:url(#SVGID_11_);}
	.st17{fill:url(#SVGID_12_);stroke:url(#SVGID_13_);stroke-width:0.9455;stroke-miterlimit:10;}
	.st18{fill:url(#SVGID_14_);}
	.st19{fill:url(#SVGID_15_);}
	.st20{fill:url(#SVGID_16_);}
	.st21{fill:url(#SVGID_17_);}
	.st22{fill:#808080;}
	.st23{fill:#0F1418;}
	.st24{fill:url(#SVGID_18_);}
	.st25{fill-rule:evenodd;clip-rule:evenodd;}
	.st26{fill-rule:evenodd;clip-rule:evenodd;fill:url(#SVGID_19_);}
	.st27{fill-rule:evenodd;clip-rule:evenodd;fill:url(#SVGID_20_);}
	.st28{fill:none;stroke:#000000;stroke-width:1.4286;}
	.st29{fill:url(#SVGID_21_);}
	.st30{fill:url(#SVGID_22_);}
	.st31{fill:url(#SVGID_23_);}
	.st32{fill:url(#SVGID_24_);}
	.st33{fill:url(#SVGID_25_);}
	.st34{fill:url(#SVGID_26_);}
	.st35{fill:url(#SVGID_27_);}
	.st36{fill:url(#SVGID_28_);}
	.st37{fill:url(#SVGID_29_);}
	.st38{fill:url(#SVGID_30_);}
	.st39{fill:url(#SVGID_31_);}
	.st40{fill:url(#SVGID_32_);}
	.st41{fill:url(#SVGID_33_);}
</style>
<g>
	<g>
		<linearGradient id="SVGID_1_" gradientUnits="userSpaceOnUse" x1="12.6257" y1="26.2072" x2="12.6257" y2="0">
			<stop  offset="0" style="stop-color:#FFA000"/>
			<stop  offset="1" style="stop-color:#FEFDB3"/>
		</linearGradient>
		<path class="st0" d="M2.5,0C1.9,0,1.2,0.3,0.7,0.7C0.3,1.2,0,1.9,0,2.5v16.6c0,0.7,0.3,1.3,0.7,1.8c0.5,0.5,1.1,0.7,1.8,0.7h9.3
			v2.9H3.4v1.7h18.5v-1.7h-8.4v-2.9h9.3c0.7,0,1.3-0.3,1.8-0.7c0.5-0.5,0.7-1.1,0.7-1.8V2.5c0-0.7-0.3-1.3-0.7-1.8
			C24,0.3,23.4,0,22.7,0H2.5z"/>
		<linearGradient id="SVGID_2_" gradientUnits="userSpaceOnUse" x1="12.6257" y1="21.6241" x2="12.6257" y2="0">
			<stop  offset="0" style="stop-color:#FFA000"/>
			<stop  offset="1" style="stop-color:#FEFDB3"/>
		</linearGradient>
		<path style="fill:url(#SVGID_2_);" d="M13.5,21.6h9.3c0.7,0,1.3-0.3,1.8-0.7c0.5-0.5,0.7-1.1,0.7-1.8V2.5c0-0.7-0.3-1.3-0.7-1.8
			C24,0.3,23.4,0,22.7,0H2.5C1.9,0,1.2,0.3,0.7,0.7C0.3,1.2,0,1.9,0,2.5v16.6c0,0.7,0.3,1.3,0.7,1.8c0.5,0.5,1.1,0.7,1.8,0.7h9.3
			H13.5z"/>
		<path d="M2.5,17.2c-0.1,0-0.2,0-0.2-0.1C2.2,17,2.2,17,2.2,16.9V2.5c0-0.1,0-0.2,0.1-0.2c0.1-0.1,0.1-0.1,0.2-0.1h20.2
			c0.1,0,0.2,0,0.2,0.1C23,2.4,23,2.4,23,2.5v14.4c0,0.1,0,0.2-0.1,0.2c-0.1,0.1-0.1,0.1-0.2,0.1H2.5z"/>
		<g>
			<g>
				<linearGradient id="SVGID_3_" gradientUnits="userSpaceOnUse" x1="11.3712" y1="8.9839" x2="13.124" y2="8.9839">
					<stop  offset="0" style="stop-color:#ECECEC"/>
					<stop  offset="0.3379" style="stop-color:#E0E0E0"/>
					<stop  offset="0.9538" style="stop-color:#BFBFBF"/>
					<stop  offset="1" style="stop-color:#BCBCBC"/>
				</linearGradient>
				<path style="fill:url(#SVGID_3_);" d="M13.1,10.7h-1.8v-7h1.8V10.7z M13.1,14.2h-1.8v-1.7h1.8V14.2z"/>
			</g>
			<g>
				
					<linearGradient id="SVGID_4_" gradientUnits="userSpaceOnUse" x1="12.2476" y1="830.2347" x2="12.2476" y2="819.7332" gradientTransform="matrix(1 0 0 1 0 -816)">
					<stop  offset="0" style="stop-color:#FFA000"/>
					<stop  offset="1" style="stop-color:#FEFDB3"/>
				</linearGradient>
				<path class="st9" d="M13.1,10.7h-1.8v-7h1.8V10.7z M13.1,14.2h-1.8v-1.7h1.8V14.2z"/>
			</g>
		</g>
	</g>
</g>
</svg>
