<svg id="圖層_1" data-name="圖層 1" xmlns="http://www.w3.org/2000/svg" viewBox="0 0 35.01 35.14"><defs><style>.cls-1{fill:#fff;}</style></defs><title>Icon_sk</title><g id="圖層_5" data-name="圖層 5"><path class="cls-1" d="M33.72,20.19a17.86,17.86,0,0,0,.21-2.53A16.46,16.46,0,0,0,17.58,1.14a15.3,15.3,0,0,0-2.53.18A10.07,10.07,0,0,0,1.26,15a17.86,17.86,0,0,0-.21,2.53A16.45,16.45,0,0,0,17.42,34a17.55,17.55,0,0,0,2.51-.18A10.08,10.08,0,0,0,33.72,20.14ZM13.82,14A2,2,0,0,0,14.91,15a10.85,10.85,0,0,0,1.82.62l.59.16a24.33,24.33,0,0,1,2.6.92,8.67,8.67,0,0,1,1.56.6,5.08,5.08,0,0,1,2.71,2.93,4.63,4.63,0,0,1-.68,4,6.47,6.47,0,0,1-2.85,2.21,8.75,8.75,0,0,1-9.72-2.26,1.59,1.59,0,0,1,2.39-2.09,5.51,5.51,0,0,0,6.1,1.46,3.39,3.39,0,0,0,1.47-1.09,1.46,1.46,0,0,0,.26-1.23,2,2,0,0,0-1.09-1.05,9.55,9.55,0,0,0-1.82-.63l-.59-.17a24.27,24.27,0,0,1-2.6-.91,10.48,10.48,0,0,1-1.56-.6,5.14,5.14,0,0,1-2.71-2.93,4.63,4.63,0,0,1,.68-4,6.47,6.47,0,0,1,2.85-2.21A8.73,8.73,0,0,1,24,11a1.58,1.58,0,0,1-2.39,2.08,5.56,5.56,0,0,0-6.1-1.42,3.39,3.39,0,0,0-1.47,1.09A1.5,1.5,0,0,0,13.82,14Z"/></g></svg>