<?xml version="1.0" encoding="utf-8"?>
<!-- Generator: Adobe Illustrator 23.0.3, SVG Export Plug-In . SVG Version: 6.00 Build 0)  -->
<svg version="1.1" id="圖層_1" xmlns="http://www.w3.org/2000/svg" xmlns:xlink="http://www.w3.org/1999/xlink" x="0px" y="0px"
	 width="34.1px" height="15.7px" viewBox="0 0 34.1 15.7" style="enable-background:new 0 0 34.1 15.7;" xml:space="preserve">
<style type="text/css">
	.st0{fill:url(#SVGID_1_);}
	.st1{fill:url(#SVGID_2_);}
	.st2{fill:url(#SVGID_3_);}
	.st3{fill:url(#SVGID_4_);}
	.st4{fill:url(#SVGID_5_);}
	.st5{fill:url(#SVGID_6_);}
	.st6{fill:#FFFFFF;}
	.st7{fill:url(#SVGID_7_);}
	.st8{fill:url(#SVGID_8_);}
	.st9{fill:url(#SVGID_9_);}
	.st10{fill:url(#SVGID_10_);}
	.st11{fill:url(#SVGID_11_);}
	.st12{fill:url(#SVGID_12_);}
	.st13{fill:url(#SVGID_13_);}
	.st14{fill:url(#SVGID_14_);}
	.st15{fill:url(#SVGID_15_);}
	.st16{fill:url(#SVGID_16_);}
	.st17{fill:url(#SVGID_17_);}
	.st18{fill:url(#SVGID_18_);}
	.st19{fill:url(#SVGID_19_);}
	.st20{fill:url(#SVGID_20_);}
	.st21{fill:url(#SVGID_21_);}
	.st22{fill:url(#SVGID_22_);}
	.st23{fill:#221B17;}
	.st24{clip-path:url(#SVGID_24_);fill:url(#SVGID_25_);}
	.st25{clip-path:url(#SVGID_24_);fill:url(#SVGID_26_);}
	.st26{clip-path:url(#SVGID_24_);fill:url(#SVGID_27_);}
	.st27{clip-path:url(#SVGID_24_);fill:url(#SVGID_28_);}
	.st28{clip-path:url(#SVGID_30_);fill:url(#SVGID_31_);}
	.st29{clip-path:url(#SVGID_30_);fill:url(#SVGID_32_);}
	.st30{clip-path:url(#SVGID_30_);fill:url(#SVGID_33_);}
	.st31{clip-path:url(#SVGID_30_);fill:url(#SVGID_34_);}
	.st32{clip-path:url(#SVGID_30_);fill:url(#SVGID_35_);}
	.st33{clip-path:url(#SVGID_37_);fill:url(#SVGID_38_);}
	.st34{clip-path:url(#SVGID_37_);fill:url(#SVGID_39_);}
	.st35{clip-path:url(#SVGID_37_);}
	.st36{fill:url(#SVGID_40_);}
	.st37{fill:url(#SVGID_41_);}
	.st38{clip-path:url(#SVGID_37_);fill:url(#SVGID_42_);}
	.st39{clip-path:url(#SVGID_37_);fill:url(#SVGID_43_);}
</style>
<g>
	<path class="st23" d="M31.7,1.1C31.7,1.1,31.7,1.1,31.7,1.1C30.6,0.4,29.1,0,27.2,0H21c-0.2,0-0.3,0-0.5,0.1C20.4,0,20.2,0,20.1,0
		h-6.3c0,0-0.1,0-0.1,0c0,0-0.1,0-0.1,0H9.3c-0.4,0-0.7,0.1-1,0.4C8,0.1,7.7,0,7.3,0H1.2C0.3,0-0.3,0.7-0.3,1.5v0.8
		c0,0.8,0.7,1.5,1.5,1.5h0.5l3.9,10.9c0.2,0.6,0.8,1,1.4,1h0.8c0.6,0,1.2-0.4,1.4-1l3.8-10.9h0.5c0,0,0.1,0,0.1,0c0,0,0.1,0,0.1,0
		H14v7.8h-0.3c-0.8,0-1.5,0.7-1.5,1.5V14c0,0.8,0.7,1.5,1.5,1.5h6.3c0.2,0,0.3,0,0.5-0.1c0.1,0,0.3,0.1,0.5,0.1h6.4
		c0.8,0,1.5-0.7,1.5-1.5v-0.8c0-0.8-0.7-1.5-1.5-1.5H27V10h0.3c1.8,0,3.3-0.4,4.4-1.2c1.3-0.9,2-2.2,2-3.9C33.8,3.3,33,1.9,31.7,1.1
		z M20.1,11.6h-0.3V3.8h0.3c0.2,0,0.3,0,0.5-0.1c0.1,0,0.3,0.1,0.5,0.1h0.3v7.8H21c-0.2,0-0.3,0-0.5,0.1
		C20.4,11.7,20.2,11.6,20.1,11.6z M27.6,6.1c0,0-0.1,0-0.2,0H27V3.8h0.5c0.1,0,0.1,0,0.2,0c0.1,0.1,0.1,0.4,0.1,1.1
		C27.8,5.9,27.6,6.1,27.6,6.1z M8.3,3.5c0.2,0.2,0.4,0.3,0.6,0.3L8.3,5.5L7.7,3.8C7.9,3.7,8.1,3.6,8.3,3.5z"/>
	<g>
		<g>
			<defs>
				<polygon id="SVGID_23_" points="13.8,2.3 15.5,2.3 15.5,13.1 13.8,13.1 13.8,14 20.1,14 20.1,13.1 18.3,13.1 18.3,2.3 20.1,2.3 
					20.1,1.5 13.8,1.5 				"/>
			</defs>
			<clipPath id="SVGID_1_">
				<use xlink:href="#SVGID_23_"  style="overflow:visible;"/>
			</clipPath>
			<linearGradient id="SVGID_2_" gradientUnits="userSpaceOnUse" x1="16.9114" y1="-2.690084e-03" x2="16.9114" y2="16.0021">
				<stop  offset="0" style="stop-color:#C39434"/>
				<stop  offset="0.19" style="stop-color:#7F4B0C"/>
				<stop  offset="0.3242" style="stop-color:#C39434"/>
				<stop  offset="0.3556" style="stop-color:#C99E41"/>
				<stop  offset="0.4135" style="stop-color:#DAB863"/>
				<stop  offset="0.491" style="stop-color:#F4E399"/>
				<stop  offset="0.52" style="stop-color:#FFF4AF"/>
				<stop  offset="0.5539" style="stop-color:#FDF0AA"/>
				<stop  offset="0.5918" style="stop-color:#F6E69D"/>
				<stop  offset="0.6316" style="stop-color:#EBD487"/>
				<stop  offset="0.6728" style="stop-color:#DCBC67"/>
				<stop  offset="0.7146" style="stop-color:#C99D3F"/>
				<stop  offset="0.7253" style="stop-color:#C39434"/>
				<stop  offset="0.83" style="stop-color:#8F4F18"/>
				<stop  offset="0.93" style="stop-color:#FFD452"/>
				<stop  offset="1" style="stop-color:#C39434"/>
			</linearGradient>
			<polygon style="clip-path:url(#SVGID_1_);fill:url(#SVGID_2_);" points="13.8,14 13.8,13.1 15.5,13.1 15.5,2.3 13.8,2.3 
				13.8,1.5 20.1,1.5 20.1,2.3 18.3,2.3 18.3,13.1 20.1,13.1 20.1,14 			"/>
			<linearGradient id="SVGID_3_" gradientUnits="userSpaceOnUse" x1="16.9114" y1="-6.3188" x2="16.9114" y2="14.8722">
				<stop  offset="0.4071" style="stop-color:#FFFFAD"/>
				<stop  offset="0.5336" style="stop-color:#F2E89B"/>
				<stop  offset="0.7272" style="stop-color:#E0CA83"/>
				<stop  offset="0.837" style="stop-color:#DABF7A"/>
				<stop  offset="0.8832" style="stop-color:#D8BC78"/>
				<stop  offset="0.9216" style="stop-color:#D2B174"/>
				<stop  offset="0.9571" style="stop-color:#C8A06B"/>
				<stop  offset="0.9908" style="stop-color:#BB8860"/>
				<stop  offset="1" style="stop-color:#B6805C"/>
			</linearGradient>
			<path style="clip-path:url(#SVGID_1_);fill:url(#SVGID_3_);" d="M14,13.8v-0.4h1.8V2.1H14V1.7h5.9v0.4h-1.8v11.2h1.8v0.4H14z"/>
			<linearGradient id="SVGID_4_" gradientUnits="userSpaceOnUse" x1="16.9114" y1="10.0154" x2="16.9114" y2="4.1692">
				<stop  offset="5.025130e-03" style="stop-color:#FFF6B1"/>
				<stop  offset="1" style="stop-color:#FFF6B1;stop-opacity:0"/>
			</linearGradient>
			<polygon style="clip-path:url(#SVGID_1_);fill:url(#SVGID_4_);" points="15.9,7.9 18,7.9 18,2 19.7,2 19.7,1.8 14.1,1.8 14.1,2 
				15.9,2 			"/>
			
				<radialGradient id="SVGID_5_" cx="1459.6843" cy="1501.5674" r="3.499" gradientTransform="matrix(0.4554 1.000000e-04 -2.000000e-04 1.719 -648.7267 -2573.813)" gradientUnits="userSpaceOnUse">
				<stop  offset="0" style="stop-color:#FFF6B1"/>
				<stop  offset="0.1232" style="stop-color:#FFF6B1;stop-opacity:0.8768"/>
				<stop  offset="1" style="stop-color:#FFF6B1;stop-opacity:0"/>
			</radialGradient>
			<path style="clip-path:url(#SVGID_1_);fill:url(#SVGID_5_);" d="M17.3,7.5c0,3.3-0.7,6-1.6,6c-0.9,0-1.6-2.7-1.6-6
				c0-3.3,0.7-6,1.6-6C16.6,1.5,17.3,4.2,17.3,7.5z"/>
		</g>
		<g>
			<defs>
				<path id="SVGID_29_" d="M30.9,2.3c-0.9-0.5-2.1-0.8-3.7-0.8H21v0.8h1.8v10.8H21V14h6.4v-0.8h-1.9V8.5h1.8c1.5,0,2.7-0.3,3.6-0.9
					C31.8,7,32.3,6.1,32.3,5C32.3,3.8,31.8,2.9,30.9,2.3z M28.8,7c-0.3,0.4-0.7,0.6-1.4,0.6h-1.9V2.3h2c0.6,0,1.1,0.2,1.4,0.6
					c0.3,0.4,0.4,1.1,0.4,2C29.3,5.9,29.1,6.6,28.8,7z"/>
			</defs>
			<clipPath id="SVGID_6_">
				<use xlink:href="#SVGID_29_"  style="overflow:visible;"/>
			</clipPath>
			<linearGradient id="SVGID_7_" gradientUnits="userSpaceOnUse" x1="26.6163" y1="-2.690084e-03" x2="26.6163" y2="16.0021">
				<stop  offset="0" style="stop-color:#C39434"/>
				<stop  offset="0.19" style="stop-color:#7F4B0C"/>
				<stop  offset="0.3242" style="stop-color:#C39434"/>
				<stop  offset="0.3556" style="stop-color:#C99E41"/>
				<stop  offset="0.4135" style="stop-color:#DAB863"/>
				<stop  offset="0.491" style="stop-color:#F4E399"/>
				<stop  offset="0.52" style="stop-color:#FFF4AF"/>
				<stop  offset="0.5539" style="stop-color:#FDF0AA"/>
				<stop  offset="0.5918" style="stop-color:#F6E69D"/>
				<stop  offset="0.6316" style="stop-color:#EBD487"/>
				<stop  offset="0.6728" style="stop-color:#DCBC67"/>
				<stop  offset="0.7146" style="stop-color:#C99D3F"/>
				<stop  offset="0.7253" style="stop-color:#C39434"/>
				<stop  offset="0.83" style="stop-color:#8F4F18"/>
				<stop  offset="0.93" style="stop-color:#FFD452"/>
				<stop  offset="1" style="stop-color:#C39434"/>
			</linearGradient>
			<path style="clip-path:url(#SVGID_6_);fill:url(#SVGID_7_);" d="M21,14v-0.8h1.8V2.3H21V1.5h6.2c1.6,0,2.8,0.3,3.7,0.8
				c0.9,0.6,1.4,1.5,1.4,2.6c0,1.1-0.5,2-1.4,2.6c-0.9,0.6-2.1,0.9-3.6,0.9h-1.8v4.6h1.9V14H21z M27.4,7.7c0.7,0,1.1-0.2,1.4-0.6
				c0.3-0.5,0.5-1.2,0.5-2.1c0-0.9-0.1-1.6-0.4-2c-0.3-0.4-0.7-0.6-1.4-0.6h-2v5.3H27.4z"/>
			<linearGradient id="SVGID_8_" gradientUnits="userSpaceOnUse" x1="26.6163" y1="-6.3188" x2="26.6163" y2="14.8722">
				<stop  offset="0.4071" style="stop-color:#FFFFAD"/>
				<stop  offset="0.5336" style="stop-color:#F2E89B"/>
				<stop  offset="0.7272" style="stop-color:#E0CA83"/>
				<stop  offset="0.837" style="stop-color:#DABF7A"/>
				<stop  offset="0.8832" style="stop-color:#D8BC78"/>
				<stop  offset="0.9216" style="stop-color:#D2B174"/>
				<stop  offset="0.9571" style="stop-color:#C8A06B"/>
				<stop  offset="0.9908" style="stop-color:#BB8860"/>
				<stop  offset="1" style="stop-color:#B6805C"/>
			</linearGradient>
			<path style="clip-path:url(#SVGID_6_);fill:url(#SVGID_8_);" d="M30.8,7.4c-0.9,0.6-2,0.9-3.5,0.9h-2v5.1h1.9v0.4h-6v-0.4H23V2.1
				h-1.8V1.7h6c1.5,0,2.7,0.3,3.6,0.8C31.6,3,32,3.9,32,5C32,6,31.6,6.9,30.8,7.4z M29,2.8c-0.3-0.5-0.8-0.7-1.5-0.7h-2.2v5.8h2.1
				c0.7,0,1.3-0.2,1.6-0.7c0.3-0.5,0.5-1.2,0.5-2.2C29.5,4,29.3,3.3,29,2.8z"/>
			<linearGradient id="SVGID_9_" gradientUnits="userSpaceOnUse" x1="26.6163" y1="10.0154" x2="26.6163" y2="4.1692">
				<stop  offset="5.025130e-03" style="stop-color:#FFF6B1"/>
				<stop  offset="1" style="stop-color:#FFF6B1;stop-opacity:0"/>
			</linearGradient>
			<path style="clip-path:url(#SVGID_6_);fill:url(#SVGID_9_);" d="M23.1,7.9h2.1V2h2.3c0.8,0,1.3,0.2,1.6,0.7
				c0.3,0.5,0.5,1.2,0.5,2.2c0,1-0.2,1.8-0.5,2.3c-0.2,0.4-0.6,0.6-1,0.7h1.4c0.5-0.1,0.9-0.3,1.2-0.6C31.5,6.8,31.9,6,31.9,5
				c0-1.1-0.4-1.9-1.2-2.4c-0.8-0.5-2-0.8-3.5-0.8h-5.9V2h1.8V7.9z"/>
			
				<radialGradient id="SVGID_10_" cx="592.611" cy="1612.2762" r="3.499" gradientTransform="matrix(0.3539 8.290000e-02 -0.3517 1.5019 389.1671 -2464.3269)" gradientUnits="userSpaceOnUse">
				<stop  offset="0" style="stop-color:#FFFFFF"/>
				<stop  offset="0.1232" style="stop-color:#FFFFFF;stop-opacity:0.8768"/>
				<stop  offset="1" style="stop-color:#FFFFFF;stop-opacity:0"/>
			</radialGradient>
			<path style="clip-path:url(#SVGID_6_);fill:url(#SVGID_10_);" d="M33.1,6.6c-0.7,2.9-1.8,5.1-2.5,5c-0.7-0.2-0.7-2.6,0-5.5
				c0.7-2.9,1.8-5.1,2.5-5C33.8,1.2,33.8,3.7,33.1,6.6z"/>
			
				<radialGradient id="SVGID_11_" cx="213.9051" cy="1404.0378" r="3.4988" gradientTransform="matrix(0.2826 -2.000000e-03 9.300000e-03 1.323 -48.1519 -1850.8301)" gradientUnits="userSpaceOnUse">
				<stop  offset="0" style="stop-color:#FFF6B1"/>
				<stop  offset="0.1232" style="stop-color:#FFF6B1;stop-opacity:0.8768"/>
				<stop  offset="1" style="stop-color:#FFF6B1;stop-opacity:0"/>
			</radialGradient>
			<path style="clip-path:url(#SVGID_6_);fill:url(#SVGID_11_);" d="M26.3,6.3c0,2.6-0.4,4.6-1,4.6c-0.5,0-1-2.1-1-4.6
				c0-2.6,0.4-4.6,1-4.6C25.9,1.7,26.3,3.7,26.3,6.3z"/>
		</g>
		<g>
			<defs>
				<polygon id="SVGID_36_" points="9.3,2.3 11.1,2.3 8.3,9.9 5.5,2.3 7.3,2.3 7.3,1.5 1.2,1.5 1.2,2.3 2.7,2.3 7,14.2 7.9,14.2 
					12,2.3 13.6,2.3 13.6,1.5 9.3,1.5 				"/>
			</defs>
			<clipPath id="SVGID_12_">
				<use xlink:href="#SVGID_36_"  style="overflow:visible;"/>
			</clipPath>
			<linearGradient id="SVGID_13_" gradientUnits="userSpaceOnUse" x1="7.3869" y1="-2.697154e-03" x2="7.3869" y2="16.002">
				<stop  offset="0" style="stop-color:#C39434"/>
				<stop  offset="0.19" style="stop-color:#7F4B0C"/>
				<stop  offset="0.3242" style="stop-color:#C39434"/>
				<stop  offset="0.3556" style="stop-color:#C99E41"/>
				<stop  offset="0.4135" style="stop-color:#DAB863"/>
				<stop  offset="0.491" style="stop-color:#F4E399"/>
				<stop  offset="0.52" style="stop-color:#FFF4AF"/>
				<stop  offset="0.5539" style="stop-color:#FDF0AA"/>
				<stop  offset="0.5918" style="stop-color:#F6E69D"/>
				<stop  offset="0.6316" style="stop-color:#EBD487"/>
				<stop  offset="0.6728" style="stop-color:#DCBC67"/>
				<stop  offset="0.7146" style="stop-color:#C99D3F"/>
				<stop  offset="0.7253" style="stop-color:#C39434"/>
				<stop  offset="0.83" style="stop-color:#8F4F18"/>
				<stop  offset="0.93" style="stop-color:#FFD452"/>
				<stop  offset="1" style="stop-color:#C39434"/>
			</linearGradient>
			<polygon style="clip-path:url(#SVGID_12_);fill:url(#SVGID_13_);" points="7,14.2 2.7,2.3 1.2,2.3 1.2,1.5 7.3,1.5 7.3,2.3 
				5.5,2.3 8.3,9.9 11.1,2.3 9.3,2.3 9.3,1.5 13.6,1.5 13.6,2.3 12,2.3 7.9,14.2 			"/>
			<linearGradient id="SVGID_14_" gradientUnits="userSpaceOnUse" x1="7.3869" y1="-6.3188" x2="7.3869" y2="14.8722">
				<stop  offset="0.4071" style="stop-color:#FFFFAD"/>
				<stop  offset="0.5336" style="stop-color:#F2E89B"/>
				<stop  offset="0.7272" style="stop-color:#E0CA83"/>
				<stop  offset="0.837" style="stop-color:#DABF7A"/>
				<stop  offset="0.8832" style="stop-color:#D8BC78"/>
				<stop  offset="0.9216" style="stop-color:#D2B174"/>
				<stop  offset="0.9571" style="stop-color:#C8A06B"/>
				<stop  offset="0.9908" style="stop-color:#BB8860"/>
				<stop  offset="1" style="stop-color:#B6805C"/>
			</linearGradient>
			<path style="clip-path:url(#SVGID_12_);fill:url(#SVGID_14_);" d="M11.9,2.1L7.7,14H7.2L2.9,2.1H1.4V1.7h5.7v0.4H5.2l3.1,8.4
				l3-8.4H9.5V1.7h3.9v0.4H11.9z"/>
			<g style="clip-path:url(#SVGID_12_);">
				<linearGradient id="SVGID_15_" gradientUnits="userSpaceOnUse" x1="11.3336" y1="10.0154" x2="11.3336" y2="4.1692">
					<stop  offset="5.025130e-03" style="stop-color:#FFF6B1"/>
					<stop  offset="1" style="stop-color:#FFF6B1;stop-opacity:0"/>
				</linearGradient>
				<polygon class="st15" points="9.4,7.9 9.8,7.9 11.8,2 13.3,2 13.3,1.8 9.6,1.8 9.6,2 11.5,2 				"/>
				<linearGradient id="SVGID_16_" gradientUnits="userSpaceOnUse" x1="4.3573" y1="10.0154" x2="4.3573" y2="4.1692">
					<stop  offset="5.025130e-03" style="stop-color:#FFF6B1"/>
					<stop  offset="1" style="stop-color:#FFF6B1;stop-opacity:0"/>
				</linearGradient>
				<polygon class="st16" points="5.1,7.9 7.2,7.9 5.1,2 7,2 7,1.8 1.5,1.8 1.5,2 3,2 				"/>
			</g>
			
				<radialGradient id="SVGID_17_" cx="1894.0647" cy="1329.9617" r="3.4991" gradientTransform="matrix(0.4369 -0.1284 0.4349 1.48 -1400.8888 -1716.4458)" gradientUnits="userSpaceOnUse">
				<stop  offset="0" style="stop-color:#FFF6B1"/>
				<stop  offset="0.1232" style="stop-color:#FFF6B1;stop-opacity:0.8768"/>
				<stop  offset="1" style="stop-color:#FFF6B1;stop-opacity:0"/>
			</radialGradient>
			<path style="clip-path:url(#SVGID_12_);fill:url(#SVGID_17_);" d="M6.6,8.3c0.8,2.9,0.8,5.4,0,5.6C5.7,14.1,4.3,12,3.5,9.1
				c-0.8-2.9-0.8-5.4,0-5.6C4.4,3.3,5.7,5.4,6.6,8.3z"/>
			
				<radialGradient id="SVGID_18_" cx="1899.5686" cy="1328.3053" r="3.4991" gradientTransform="matrix(0.4369 -0.1284 0.4349 1.48 -1400.8888 -1716.4458)" gradientUnits="userSpaceOnUse">
				<stop  offset="0" style="stop-color:#FFFFFF"/>
				<stop  offset="0.1232" style="stop-color:#FFFFFF;stop-opacity:0.8768"/>
				<stop  offset="1" style="stop-color:#FFFFFF;stop-opacity:0"/>
			</radialGradient>
			<path style="clip-path:url(#SVGID_12_);fill:url(#SVGID_18_);" d="M8.2,5.1c0.8,2.9,0.8,5.4,0,5.6C7.4,11,6,8.9,5.2,6
				c-0.8-2.9-0.8-5.4,0-5.6C6,0.1,7.4,2.2,8.2,5.1z"/>
		</g>
	</g>
</g>
</svg>
